<svg width="18" height="21" viewBox="0 0 18 21" fill="currentColor" xmlns="http://www.w3.org/2000/svg">
<path d="M7.49403 12.1004C7.35525 12.24 7.27721 12.4291 7.27721 12.6259C7.27721 12.823 7.35525 13.0118 7.49403 13.1516C7.63315 13.2916 7.82218 13.3706 8.01954 13.3714C8.21823 13.3716 8.40876 13.2926 8.54888 13.1516L14.5128 7.18768C14.9954 6.71793 15.2696 6.07442 15.2739 5.40101C15.2783 4.72755 15.0125 4.08059 14.5361 3.60467C14.0597 3.12875 13.4124 2.86365 12.7389 2.86868C12.0655 2.87384 11.4224 3.14857 10.9531 3.63163L1.1948 13.3899C0.201373 14.3833 -0.186708 15.8314 0.177049 17.1884C0.540645 18.5454 1.60064 19.6054 2.95765 19.9692C4.31466 20.3328 5.76275 19.9447 6.75617 18.9513L16.5072 9.19641C17.8142 7.83689 18.3085 5.88962 17.8083 4.07126C17.3083 2.25294 15.8877 0.832375 14.0694 0.332299C12.251 -0.167905 10.3038 0.326475 8.94421 1.63342L0.19213 10.3855C0.0195676 10.5767 -0.0421681 10.8434 0.0290541 11.091C0.100276 11.3386 0.294138 11.532 0.542081 11.6022C0.789857 11.6726 1.05643 11.6099 1.24715 11.4367L9.99922 2.68841C10.9794 1.74172 12.3861 1.38214 13.7004 1.74274C15.0145 2.10334 16.0409 3.13055 16.4007 4.445C16.7603 5.75928 16.3998 7.16588 15.4525 8.1455L5.70144 17.9153C5.07974 18.5055 4.19414 18.7265 3.36796 18.4975C2.54192 18.2686 1.89645 17.6231 1.66748 16.797C1.4385 15.971 1.65949 15.0852 2.24973 14.4637L12.0046 4.69395C12.2001 4.50775 12.4597 4.40391 12.7296 4.40391C12.9995 4.40391 13.2592 4.50775 13.4547 4.69395C13.6479 4.88582 13.7565 5.14674 13.7565 5.419C13.7565 5.69125 13.6479 5.95217 13.4547 6.14404L7.49403 12.1004Z" fill="currentColor"/>
</svg>
