<svg width="18" height="18" viewBox="0 0 18 18" fill="none" xmlns="http://www.w3.org/2000/svg">
<path d="M8.99976 0C4.03709 0 0 4.03761 0 9.00024C0 13.9629 4.03742 18 8.99976 18C13.9624 18 18 13.9629 18 9.00024C18 4.03756 13.9626 0 8.99976 0ZM8.99976 16.4405C4.89758 16.4405 1.56001 13.1025 1.56001 9.00024C1.56001 4.89805 4.89744 1.56048 8.99976 1.56048C13.1027 1.56048 16.44 4.89829 16.44 9.00024C16.44 13.1024 13.1028 16.4405 8.99976 16.4405Z" fill="#222222"/>
<path d="M9.95712 13.9252C9.95712 14.4364 9.54267 14.851 9.0313 14.851C8.51992 14.851 8.10547 14.4364 8.10547 13.9252C8.10547 13.4139 8.51992 12.9992 9.0313 12.9992C9.54267 12.9992 9.95712 13.4138 9.95712 13.9252Z" fill="#222222"/>
<path d="M10.0162 3.59462C9.73199 3.33959 9.4054 3.14948 9.03071 3.14948C8.65602 3.14948 8.32944 3.33959 8.04499 3.59462C7.69158 3.91124 7.66476 4.25873 7.69638 4.64322L8.30926 11.2819C8.34403 11.7074 8.61571 12.0266 9.03089 12.0266C9.44607 12.0266 9.71776 11.7076 9.75251 11.2819L10.3654 4.64322C10.3968 4.25872 10.37 3.91141 10.0162 3.59462H10.0162Z" fill="#222222"/>
</svg>
