<svg width="13" height="17" viewBox="0 0 13 17" fill="none" xmlns="http://www.w3.org/2000/svg">
<path d="M1.14732 16.0625C0.828621 16.0625 0.557726 15.951 0.334635 15.7279C0.111545 15.5048 0 15.2339 0 14.9152V6.61622C0 6.29752 0.111545 6.02662 0.334635 5.80353C0.557726 5.58044 0.828621 5.4689 1.14732 5.4689H2.48586V3.63318C2.48586 2.62609 2.83962 1.76879 3.54714 1.06127C4.25465 0.353757 5.11195 0 6.11905 0C7.12614 0 7.98344 0.353757 8.69096 1.06127C9.39847 1.76879 9.75223 2.62609 9.75223 3.63318V5.4689H11.0908C11.4095 5.4689 11.6804 5.58044 11.9035 5.80353C12.1265 6.02662 12.2381 6.29752 12.2381 6.61622V14.9152C12.2381 15.2339 12.1265 15.5048 11.9035 15.7279C11.6804 15.951 11.4095 16.0625 11.0908 16.0625H1.14732ZM1.14732 14.9152H11.0908V6.61622H1.14732V14.9152ZM6.11905 12.2381C6.52698 12.2381 6.87437 12.0979 7.1612 11.8174C7.44803 11.537 7.59144 11.1991 7.59144 10.8039C7.59144 10.4215 7.44803 10.0741 7.1612 9.76179C6.87437 9.44946 6.52698 9.2933 6.11905 9.2933C5.71111 9.2933 5.36373 9.44946 5.0769 9.76179C4.79007 10.0741 4.64665 10.4215 4.64665 10.8039C4.64665 11.1991 4.79007 11.537 5.0769 11.8174C5.36373 12.0979 5.71111 12.2381 6.11905 12.2381ZM3.63318 5.4689H8.60491V3.63318C8.60491 2.94479 8.3627 2.35838 7.87827 1.87396C7.39385 1.38953 6.80744 1.14732 6.11905 1.14732C5.43065 1.14732 4.84425 1.38953 4.35982 1.87396C3.8754 2.35838 3.63318 2.94479 3.63318 3.63318V5.4689ZM1.14732 14.9152V6.61622V14.9152Z" fill="currentColor"/>
</svg>
