<svg width="16" height="16" viewBox="0 0 16 16" fill="none" xmlns="http://www.w3.org/2000/svg">
<path fill-rule="evenodd" clip-rule="evenodd" d="M10.7437 10.0369C10.8699 10.1631 10.9193 10.347 10.8732 10.5194C10.827 10.6919 10.6925 10.8265 10.5202 10.8728C10.3478 10.9191 10.1638 10.8699 10.0375 10.7438L7.64662 8.3533C7.55332 8.25931 7.50097 8.13223 7.50074 7.99982V3.66051C7.50074 3.48199 7.596 3.31707 7.75053 3.22782C7.90518 3.13856 8.09569 3.13856 8.25036 3.22782C8.40489 3.31708 8.50015 3.482 8.50015 3.66051V7.79257L10.7437 10.037L10.7437 10.0369ZM12.9504 12.9494C14.0956 11.8041 14.8083 10.2973 14.9671 8.68541C15.1259 7.07351 14.7209 5.45676 13.8211 4.10992C12.9214 2.76307 11.5825 1.77033 10.0327 1.30014C8.48288 0.829955 6.81795 0.911734 5.32171 1.53148C3.82548 2.15123 2.59035 3.27069 1.82676 4.69902C1.06321 6.12744 0.818608 7.77622 1.13459 9.36486C1.45058 10.9533 2.30755 12.383 3.55942 13.4107C4.81138 14.4381 6.38083 14.9998 8.00059 14.9998C9.85697 14.9988 11.6372 14.2614 12.9504 12.9495L12.9504 12.9494ZM8.00056 2.12591e-08C6.41829 -0.000115296 4.8714 0.468916 3.55585 1.34791C2.24012 2.2269 1.21463 3.47635 0.609083 4.93822C0.00350383 6.40009 -0.154947 8.00862 0.153659 9.56066C0.462382 11.1125 1.22423 12.5381 2.3431 13.657C3.84334 15.1572 5.8782 16 8.00002 16C10.1216 16 12.1566 15.1572 13.657 13.657C15.1572 12.1567 16 10.1219 16 8.00006C16 5.87823 15.1572 3.8435 13.657 2.34313C12.9159 1.59803 12.0345 1.00721 11.0636 0.604959C10.0927 0.202824 9.0517 -0.00280467 8.00091 8.85983e-05L8.00056 2.12591e-08Z" fill="#FFE249"/>
</svg>
