<svg width="17" height="15" viewBox="0 0 17 15" fill="currentColor" xmlns="http://www.w3.org/2000/svg">
<path d="M8.37619 11.8577H7.66146C7.47061 11.8577 7.3213 11.7033 7.3213 11.5066L7.32125 11.0677C7.14436 11.0162 6.97352 10.9458 6.81168 10.8577L6.49695 11.1693C6.43157 11.2345 6.3429 11.2709 6.25056 11.2704H6.24967C6.15719 11.2704 6.06852 11.2336 6.00328 11.1681L5.4976 10.6617C5.43213 10.5961 5.39537 10.5072 5.39537 10.4145C5.39537 10.3218 5.43213 10.2328 5.4976 10.1672L5.80871 9.8546C5.72058 9.69293 5.65014 9.52227 5.59855 9.34552H5.15969C4.96256 9.34552 4.80859 9.19603 4.80859 9.00535V8.29062C4.80859 8.09977 4.96296 7.95046 5.15969 7.95046L5.59855 7.95041C5.65005 7.77352 5.72049 7.60268 5.80857 7.44084L5.49711 7.12522C5.43209 7.05966 5.39572 6.97099 5.39595 6.87869C5.39613 6.78635 5.43294 6.69787 5.49823 6.63257L6.00454 6.12675C6.07019 6.06128 6.15912 6.02456 6.25182 6.02456C6.34452 6.02456 6.43346 6.06128 6.4991 6.12675L6.81169 6.43786C6.97336 6.34973 7.14401 6.27929 7.32077 6.2277V5.78884C7.32077 5.59171 7.47025 5.43774 7.66093 5.43774H8.37566C8.56651 5.43774 8.71582 5.59211 8.71582 5.78884L8.71587 6.2277C8.89276 6.2792 9.0636 6.34964 9.22544 6.43772L9.54017 6.12612C9.60555 6.06092 9.69423 6.02456 9.78656 6.02505H9.78745C9.87993 6.02501 9.9686 6.06182 10.0338 6.12738L10.5397 6.63368C10.6051 6.69933 10.6419 6.78827 10.6419 6.88097C10.6419 6.97367 10.6051 7.06261 10.5397 7.12825L10.2286 7.44083C10.3166 7.6025 10.387 7.77316 10.4386 7.94991H10.8774C11.0746 7.94991 11.2285 8.0994 11.2285 8.29008V9.0048C11.2285 9.19566 11.0742 9.34497 10.8774 9.34497L10.4386 9.34502C10.3871 9.52191 10.3166 9.69275 10.2286 9.85459L10.5405 10.1698C10.6055 10.2354 10.6419 10.324 10.6417 10.4164C10.6415 10.5087 10.6047 10.5972 10.5394 10.6625L10.0331 11.1683V11.1683C9.96743 11.2337 9.87849 11.2705 9.7858 11.2705C9.6931 11.2705 9.6042 11.2337 9.53856 11.1683L9.22597 10.8572H9.22593C9.06414 10.9455 8.89328 11.016 8.71636 11.0677V11.5066C8.71636 11.7033 8.56687 11.8577 8.37619 11.8577L8.37619 11.8577ZM7.78597 11.3925H8.25116V10.6973L8.43562 10.6583C8.68426 10.6057 8.92115 10.508 9.13454 10.3699L9.29226 10.2671L9.78531 10.7577L10.1283 10.4157L9.63924 9.92117L9.74116 9.76368C9.87922 9.55029 9.97698 9.3134 10.0296 9.06476L10.0686 8.8803H10.7633V8.41511H10.0682L10.0292 8.23065C9.97657 7.98201 9.87881 7.74511 9.74079 7.53173L9.63797 7.37401L10.1285 6.88095L9.78656 6.53801L9.29203 7.02703L9.13453 6.92511C8.92115 6.78704 8.68425 6.68929 8.43562 6.63671L8.25116 6.59771V5.90292H7.78596V6.59808L7.6015 6.63708C7.35287 6.6897 7.11597 6.78746 6.90259 6.92547L6.74486 7.02829L6.25195 6.53712L5.90887 6.87971L6.39789 7.37424L6.29596 7.53173C6.1579 7.74512 6.06014 7.98201 6.00757 8.23065L5.96857 8.41511H5.27378V8.8803H5.96893L6.00794 9.06476C6.06056 9.3134 6.15831 9.55029 6.29633 9.76368L6.39915 9.9214L5.90798 10.4143L6.25056 10.7574L6.7451 10.2684L6.90259 10.3703C7.11597 10.5084 7.35287 10.6061 7.60151 10.6587L7.78597 10.6977V11.3925ZM10.2095 10.4976L10.2104 10.4985L10.2095 10.4976ZM5.82694 6.79708L5.82783 6.79798L5.82694 6.79708ZM8.01865 9.8107C7.7102 9.8107 7.41441 9.68817 7.19628 9.47009C6.9782 9.25196 6.85567 8.95617 6.85567 8.64771C6.85567 8.33926 6.9782 8.04347 7.19628 7.82534C7.41441 7.60726 7.7102 7.48473 8.01865 7.48473C8.32711 7.48473 8.6229 7.60726 8.84103 7.82534C9.05911 8.04347 9.18164 8.33926 9.18164 8.64771C9.18128 8.95604 9.05863 9.25165 8.84063 9.46969C8.62258 9.68769 8.32697 9.81035 8.01865 9.8107ZM8.01865 7.94983C7.83361 7.94983 7.6561 8.02336 7.52525 8.15421C7.39439 8.28507 7.32086 8.46254 7.32086 8.64758C7.32086 8.83267 7.39435 9.01013 7.5252 9.14098C7.65605 9.27188 7.83353 9.34541 8.01856 9.34541C8.20365 9.34546 8.38112 9.27197 8.51197 9.14112C8.64287 9.01027 8.7164 8.83279 8.71645 8.64776C8.71622 8.46276 8.6426 8.28543 8.51179 8.15461C8.38097 8.0238 8.20364 7.95018 8.01864 7.94996L8.01865 7.94983Z" fill="currentColor828282"/>
<path d="M8.01846 9.81133C7.71 9.81133 7.41421 9.6888 7.19608 9.47071C6.978 9.25258 6.85547 8.95679 6.85547 8.64834C6.85547 8.33988 6.978 8.04409 7.19608 7.82596C7.41421 7.60788 7.71 7.48535 8.01846 7.48535C8.32691 7.48535 8.6227 7.60788 8.84083 7.82596C9.05891 8.04409 9.18144 8.33988 9.18144 8.64834C9.18109 8.95667 9.05843 9.25227 8.84043 9.47031C8.62238 9.68832 8.32677 9.81097 8.01846 9.81133ZM8.01846 7.95045C7.83341 7.95045 7.6559 8.02399 7.52505 8.15484C7.3942 8.28569 7.32066 8.46317 7.32066 8.6482C7.32066 8.83329 7.39415 9.01076 7.525 9.14161C7.65585 9.27251 7.83333 9.34604 8.01836 9.34604C8.20345 9.34608 8.38092 9.2726 8.51177 9.14175C8.64267 9.01089 8.7162 8.83342 8.71625 8.64838C8.71602 8.46339 8.6424 8.28606 8.51159 8.15524C8.38078 8.02442 8.20344 7.95081 8.01844 7.95058L8.01846 7.95045Z" fill="currentColor828282"/>
<path d="M15.084 1.96047V3.53448V3.7575L15.5653 3.27616H15.1594H14.0619H12.4398H10.4534H8.29375H6.0988H4.05948H2.33625H1.09276C0.89701 3.27616 0.701254 3.27295 0.505502 3.27616H0.47983L0.961173 3.7575V2.1514C0.961173 2.05834 0.956359 1.96368 0.965986 1.87222C0.959568 1.91554 0.954754 1.95726 0.948336 2.00058C0.957963 1.9364 0.974008 1.87382 0.998076 1.81285C0.98203 1.85136 0.965984 1.88987 0.949941 1.92838C0.965986 1.88987 0.98524 1.85136 1.0077 1.81606C1.06386 1.72942 0.980428 1.84334 0.982033 1.84495C0.978824 1.84013 1.02536 1.79681 1.03177 1.79039C1.04621 1.77595 1.06386 1.76312 1.0783 1.74867C1.11039 1.71498 0.965987 1.82088 1.04781 1.77435C1.08793 1.75188 1.12644 1.72782 1.16815 1.71017L1.05263 1.7583C1.1136 1.73423 1.17457 1.71819 1.24035 1.70856C1.19703 1.71498 1.15532 1.71979 1.11199 1.72621C1.2564 1.71017 1.40401 1.7214 1.54842 1.7214H2.53197H4.00489H5.80032H7.76906H9.76505H11.6247H13.1859H14.3026H14.8208C14.8561 1.7214 14.8914 1.723 14.9267 1.72621C14.8834 1.71979 14.8417 1.71498 14.7984 1.70856C14.8625 1.71819 14.9251 1.73423 14.9861 1.7583L14.8706 1.71017C14.9091 1.72621 14.9476 1.74546 14.9829 1.76793C15.0695 1.82409 14.9556 1.74065 14.954 1.74226C14.9588 1.73905 15.0021 1.78558 15.0085 1.792C15.023 1.80644 15.0358 1.82409 15.0503 1.83853C15.084 1.87062 14.9781 1.72621 15.0246 1.80804C15.0471 1.84815 15.0711 1.88666 15.0888 1.92838C15.0727 1.88987 15.0567 1.85136 15.0406 1.81285C15.0647 1.87382 15.0808 1.93479 15.0904 2.00058C15.084 1.95726 15.0791 1.91554 15.0727 1.87222C15.0824 1.9011 15.084 1.93158 15.084 1.96047C15.0872 2.21237 15.3022 2.45305 15.5653 2.44181C15.822 2.43058 16.0515 2.23001 16.0466 1.96047C16.037 1.29619 15.4995 0.763505 14.8352 0.75708H14.6315H13.5163H11.6872H9.40401H6.97799H4.66431H2.75015H1.5195H1.24353C0.811919 0.75708 0.426839 0.959246 0.187781 1.32025C-0.0304311 1.64918 0.00165734 2.03907 0.00165734 2.41291V3.53447V3.7575C0.00165734 4.01743 0.221474 4.23884 0.483 4.23884H0.888941H1.98641H3.60856H5.59493H7.75458H9.94952H11.9888H13.7121H14.9556C15.1513 4.23884 15.3471 4.24044 15.5428 4.23884H15.5685C15.8284 4.23884 16.0498 4.01902 16.0498 3.7575V2.18349V1.96047C16.0498 1.70856 15.8284 1.46789 15.5685 1.47912C15.3038 1.49036 15.0839 1.69092 15.0839 1.96047L15.084 1.96047Z" fill="currentColor828282"/>
<path d="M14.3468 3.75778V4.69963V6.94434V9.65114V11.9937C14.3468 12.3627 14.35 12.7334 14.3468 13.1024C14.3468 13.1281 14.3452 13.1538 14.342 13.1794C14.3484 13.1361 14.3532 13.0944 14.3596 13.0511C14.3532 13.0944 14.3436 13.1345 14.3275 13.1746L14.3757 13.0591C14.3628 13.088 14.3484 13.1153 14.3323 13.1425C14.3243 13.1586 14.2874 13.2035 14.3404 13.1361C14.3949 13.0655 14.35 13.1201 14.3372 13.1345C14.3356 13.1361 14.3067 13.1634 14.3067 13.1618C14.3019 13.157 14.4126 13.0912 14.3548 13.1233C14.3243 13.1409 14.2954 13.157 14.2633 13.1714C14.3019 13.1554 14.3404 13.1393 14.3789 13.1233C14.3388 13.1377 14.2986 13.149 14.2553 13.1554C14.2986 13.149 14.3404 13.1441 14.3837 13.1377C14.2553 13.1522 14.1238 13.1425 13.9954 13.1425H13.0841H11.7283H10.0692H8.24969H6.41254H4.70214H3.25969H2.228C2.06915 13.1425 1.9087 13.1441 1.74986 13.1425C1.72258 13.1425 1.6953 13.1409 1.66803 13.1377C1.71135 13.1441 1.75306 13.149 1.79639 13.1554C1.75306 13.149 1.71295 13.1393 1.67284 13.1233C1.71135 13.1393 1.74986 13.1554 1.78836 13.1714C1.75948 13.1586 1.7322 13.1441 1.70493 13.1281C1.68888 13.1201 1.64396 13.0832 1.71135 13.1361C1.78194 13.1907 1.72739 13.1457 1.71295 13.1329C1.71135 13.1313 1.68407 13.1024 1.68567 13.1024C1.69049 13.0976 1.75627 13.2083 1.72418 13.1506C1.70653 13.1201 1.69049 13.0912 1.67605 13.0591C1.69209 13.0976 1.70814 13.1361 1.72418 13.1746C1.70974 13.1345 1.69851 13.0944 1.69209 13.0511C1.69851 13.0944 1.70332 13.1361 1.70974 13.1794C1.69851 13.08 1.70493 12.9773 1.70493 12.8778V12.2023V9.97366V7.26686V4.90985C1.70493 4.53119 1.71455 4.15093 1.70493 3.77227V3.75623L1.22358 4.23757H1.58619H2.57778H4.03947H5.83008H7.78435H9.75628H11.595H13.1562H14.2746C14.4511 4.23757 14.6292 4.23917 14.8057 4.23757H14.8281C15.08 4.23757 15.3207 4.01615 15.3095 3.75623C15.2982 3.49469 15.0977 3.27488 14.8281 3.27488H14.4655H13.4739H12.0122H10.2216H8.26736H6.29542H4.45666H2.89548H1.77715C1.60065 3.27488 1.42255 3.27328 1.24605 3.27488H1.22358C0.963654 3.27488 0.742241 3.4947 0.742241 3.75623V4.46381V6.22235V8.50716V10.7679V12.4799V12.9661C0.742241 13.1089 0.739032 13.2501 0.782354 13.3897C0.913924 13.8341 1.31665 14.1069 1.77074 14.1069H2.04992H3.29342H5.19315H7.45871H9.79486H11.9144H13.5077H14.2891C14.7415 14.1069 15.1844 13.8117 15.2839 13.3512C15.3127 13.2148 15.3127 13.0896 15.3127 12.9548V11.6985V9.63676V7.2926V5.21155V3.93276V3.75787C15.3127 3.50597 15.0913 3.26529 14.8314 3.27653C14.5667 3.28776 14.3468 3.48832 14.3468 3.75787L14.3468 3.75778Z" fill="currentColor828282"/>
</svg>
