<svg width="20" height="20" viewBox="0 0 20 20" fill="none" xmlns="http://www.w3.org/2000/svg">
<path d="M10 0C7.34792 0 4.80453 1.05365 2.92902 2.92902C1.05351 4.80439 0 7.34792 0 10C0 12.6521 1.05365 15.1955 2.92902 17.071C4.80439 18.9465 7.34792 20 10 20C12.6521 20 15.1955 18.9463 17.071 17.071C18.9465 15.1956 20 12.6521 20 10C19.9972 7.34868 18.9426 4.8069 17.0679 2.93234C15.1932 1.05754 12.6514 0.00298743 10.0002 0.000189581L10 0ZM10 18.7551C7.67802 18.7551 5.45107 17.8326 3.80916 16.1908C2.16739 14.5489 1.2449 12.3219 1.2449 10C1.2449 7.67807 2.16739 5.45107 3.80916 3.80916C5.45112 2.16739 7.67807 1.2449 10 1.2449C12.3219 1.2449 14.5489 2.16739 16.1908 3.80916C17.8326 5.45112 18.7551 7.67807 18.7551 10C18.7525 12.3212 17.8293 14.5467 16.188 16.188C14.5467 17.8292 12.3212 18.7524 10 18.7551L10 18.7551ZM11.1561 8.92942V14.0594C11.1561 14.1695 11.1124 14.2751 11.0346 14.3529C10.9566 14.4307 10.8512 14.4744 10.7411 14.4744H9.25885C9.02971 14.4744 8.84392 14.2886 8.84392 14.0594V8.92847C8.84392 8.69933 9.02971 8.51353 9.25885 8.51353H10.7411C10.8512 8.51353 10.9566 8.55725 11.0346 8.63505C11.1124 8.71285 11.1561 8.81844 11.1561 8.92847V8.92942ZM11.1561 5.94188V7.03238C11.1561 7.14241 11.1124 7.24781 11.0346 7.32561C10.9566 7.4036 10.8512 7.44732 10.7411 7.44732H9.25885C9.02971 7.44732 8.84392 7.26152 8.84392 7.03238V5.94022C8.84392 5.71108 9.02971 5.52529 9.25885 5.52529H10.7411C10.8512 5.52529 10.9566 5.569 11.0346 5.6468C11.1124 5.7246 11.1561 5.83019 11.1561 5.94022V5.94188Z" fill="#828282"/>
</svg>
