<svg width="14" height="13" viewBox="0 0 14 13" fill="none" xmlns="http://www.w3.org/2000/svg">
<path d="M12.3385 5.74411L12.2136 5.06691L13.361 3.60655L11.3828 1.23702L9.57412 1.93428L9.08663 1.68802L8.56795 0H5.43208L4.9119 1.68658L4.42442 1.93284L2.6157 1.23558L0.63907 3.60511L1.78642 5.06547L1.66158 5.74267L0 6.54444L0.616764 9.38631L2.53693 9.55096L2.89361 10.0234L2.67514 11.7544L5.38746 13L6.61357 11.7572H7.38641L8.61252 13L11.3248 11.7544L11.1079 10.0234L11.4645 9.55096L13.3832 9.38631L14 6.54444L12.3385 5.74411ZM12.6476 8.58755L10.983 8.72929L10.1835 9.79164L10.3648 11.2448L8.81318 11.9564L7.76839 10.8984H6.23165L5.18686 11.9564L3.63676 11.2434L3.81956 9.79166L3.01999 8.72932L1.35544 8.58758L1.01512 7.01697L2.46119 6.31827L2.73464 4.84788L1.7686 3.62233L2.89663 2.27078L4.47348 2.87926L5.65948 2.2808L6.09641 0.860524H7.90067L8.33761 2.28224L9.52361 2.8807L11.1005 2.27222L12.2285 3.62377L11.2654 4.84932L11.5389 6.32115L12.9879 7.01841L12.6476 8.58755Z" fill="currentColor"/>
<path d="M8.71082 7.41046C8.71082 8.11775 8.15795 8.70332 7.44607 8.78778V9.32898H6.55436V8.7978H5.73397V7.93878H7.2692C7.57238 7.93878 7.81909 7.70254 7.81909 7.41046C7.81909 7.11981 7.57238 6.88214 7.2692 6.88214H6.7297C5.93458 6.88214 5.28809 6.25934 5.28809 5.4948C5.28809 4.78751 5.84243 4.20194 6.55433 4.11748V3.57916H7.44604V4.10748H8.26644V4.96651H6.7297C6.42652 4.96651 6.17982 5.20417 6.17982 5.49482C6.17982 5.78548 6.42653 6.02314 6.7297 6.02314H7.2692C8.06433 6.02314 8.71082 6.64594 8.71082 7.41049V7.41046Z" fill="currentColor"/>
</svg>
