<svg width="22" height="18" viewBox="0 0 22 18" fill="none" xmlns="http://www.w3.org/2000/svg">
<path d="M11.0682 14.6635H10.1241C9.87196 14.6635 9.67472 14.4596 9.67472 14.1997L9.67466 13.62C9.44099 13.552 9.21531 13.4589 9.00152 13.3426L8.58577 13.7542C8.4994 13.8403 8.38226 13.8884 8.26029 13.8877H8.25911C8.13695 13.8878 8.01982 13.8391 7.93363 13.7525L7.26564 13.0837C7.17916 12.997 7.13059 12.8795 7.13059 12.757C7.13059 12.6346 7.17916 12.5171 7.26564 12.4304L7.67661 12.0175C7.56019 11.8039 7.46714 11.5785 7.39899 11.345H6.81926C6.55885 11.345 6.35547 11.1475 6.35547 10.8956V9.95148C6.35547 9.69936 6.55938 9.50213 6.81926 9.50213L7.39899 9.50207C7.46702 9.26839 7.56007 9.04272 7.67643 8.82893L7.26499 8.41199C7.1791 8.32539 7.13106 8.20826 7.13136 8.08634C7.13159 7.96436 7.18022 7.84747 7.26647 7.76121L7.9353 7.09304C8.02202 7.00655 8.1395 6.95804 8.26195 6.95804C8.38441 6.95804 8.5019 7.00655 8.58861 7.09304L9.00153 7.504C9.21509 7.38758 9.44053 7.29453 9.67402 7.22638V6.64665C9.67402 6.38625 9.87148 6.18286 10.1234 6.18286H11.0675C11.3196 6.18286 11.5169 6.38678 11.5169 6.64665L11.5169 7.22638C11.7506 7.29441 11.9763 7.38747 12.1901 7.50382L12.6058 7.0922C12.6922 7.00607 12.8093 6.95804 12.9313 6.95869H12.9325C13.0546 6.95863 13.1718 7.00725 13.258 7.09386L13.9261 7.76268C14.0126 7.84941 14.0612 7.96689 14.0612 8.08934C14.0612 8.2118 14.0126 8.32928 13.9261 8.416L13.5152 8.82892C13.6315 9.04248 13.7245 9.26791 13.7926 9.50141H14.3723C14.6327 9.50141 14.8361 9.69887 14.8361 9.95076V10.8949C14.8361 11.147 14.6322 11.3443 14.3723 11.3443L13.7926 11.3443C13.7246 11.578 13.6315 11.8037 13.5152 12.0175L13.9273 12.4339C14.0131 12.5205 14.0612 12.6376 14.0609 12.7596C14.0606 12.8816 14.012 12.9984 13.9258 13.0846L13.2569 13.7528V13.7529C13.1702 13.8393 13.0527 13.8879 12.9303 13.8879C12.8078 13.8879 12.6904 13.8393 12.6037 13.7529L12.1908 13.3419H12.1907C11.977 13.4585 11.7513 13.5517 11.5176 13.62V14.1997C11.5176 14.4596 11.3201 14.6635 11.0682 14.6635L11.0682 14.6635ZM10.2885 14.049H10.9031V13.1307L11.1467 13.0792C11.4752 13.0097 11.7881 12.8805 12.07 12.6982L12.2783 12.5624L12.9297 13.2104L13.3827 12.7587L12.7367 12.1054L12.8713 11.8974C13.0537 11.6155 13.1828 11.3026 13.2523 10.9741L13.3038 10.7304H14.2216V10.1159H13.3033L13.2518 9.87225C13.1823 9.54381 13.0532 9.23087 12.8708 8.94899L12.735 8.74064L13.383 8.08932L12.9313 7.6363L12.278 8.28229L12.07 8.14765C11.7881 7.96527 11.4752 7.83614 11.1467 7.76668L10.9031 7.71516V6.79735H10.2885V7.71564L10.0449 7.76717C9.71642 7.83668 9.40349 7.96581 9.12161 8.14813L8.91326 8.28396L8.26212 7.63512L7.80892 8.08768L8.45491 8.74095L8.32027 8.949C8.13789 9.23087 8.00875 9.54381 7.9393 9.87225L7.88778 10.1159H6.96997V10.7304H7.88826L7.93979 10.9741C8.00929 11.3026 8.13843 11.6155 8.32075 11.8974L8.45657 12.1057L7.80774 12.7569L8.26029 13.2101L8.91356 12.5641L9.12161 12.6987C9.40349 12.8811 9.71643 13.0102 10.0449 13.0797L10.2885 13.1312V14.049ZM13.49 12.8668L13.4912 12.868L13.49 12.8668ZM7.70069 7.97853L7.70187 7.97971L7.70069 7.97853ZM10.5959 11.9595C10.1885 11.9595 9.79772 11.7976 9.50957 11.5095C9.22149 11.2214 9.05963 10.8307 9.05963 10.4232C9.05963 10.0157 9.22149 9.62499 9.50957 9.33685C9.79772 9.04876 10.1885 8.8869 10.5959 8.8869C11.0034 8.8869 11.3941 9.04876 11.6823 9.33685C11.9704 9.62499 12.1322 10.0157 12.1322 10.4232C12.1317 10.8305 11.9697 11.221 11.6817 11.509C11.3937 11.797 11.0032 11.959 10.5959 11.9595ZM10.5959 9.50129C10.3515 9.50129 10.117 9.59843 9.94413 9.77128C9.77128 9.94414 9.67414 10.1786 9.67414 10.423C9.67414 10.6675 9.77122 10.9019 9.94407 11.0748C10.1169 11.2477 10.3514 11.3448 10.5958 11.3448C10.8403 11.3449 11.0747 11.2478 11.2476 11.075C11.4205 10.9021 11.5176 10.6677 11.5177 10.4233C11.5174 10.1789 11.4201 9.94462 11.2473 9.77181C11.0745 9.599 10.8403 9.50176 10.5959 9.50146L10.5959 9.50129Z" fill="currentColor"/>
<path d="M10.5949 11.9603C10.1874 11.9603 9.79669 11.7984 9.50854 11.5103C9.22045 11.2222 9.05859 10.8315 9.05859 10.424C9.05859 10.0165 9.22045 9.62579 9.50854 9.33764C9.79669 9.04956 10.1874 8.8877 10.5949 8.8877C11.0024 8.8877 11.3931 9.04956 11.6812 9.33764C11.9693 9.62579 12.1312 10.0165 12.1312 10.424C12.1307 10.8313 11.9687 11.2218 11.6807 11.5098C11.3927 11.7978 11.0022 11.9598 10.5949 11.9603ZM10.5949 9.50209C10.3504 9.50209 10.116 9.59923 9.9431 9.77208C9.77024 9.94493 9.67311 10.1794 9.67311 10.4238C9.67311 10.6683 9.77019 10.9027 9.94304 11.0756C10.1159 11.2485 10.3503 11.3456 10.5948 11.3456C10.8393 11.3457 11.0737 11.2486 11.2466 11.0758C11.4195 10.9029 11.5166 10.6685 11.5167 10.424C11.5164 10.1797 11.4191 9.94542 11.2463 9.77261C11.0735 9.5998 10.8393 9.50256 10.5949 9.50226L10.5949 9.50209Z" fill="currentColor"/>
<path d="M19.9257 1.58967V3.66891V3.96352L20.5616 3.32767H20.0254H18.5756H16.4328H13.8088H10.9559H8.05644H5.36252H3.08616H1.44352C1.18494 3.32767 0.926348 3.32343 0.667762 3.32767H0.633849L1.2697 3.96352V1.84188C1.2697 1.71895 1.26334 1.5939 1.27606 1.47309C1.26758 1.53032 1.26122 1.58542 1.25274 1.64265C1.26546 1.55787 1.28665 1.47521 1.31845 1.39467C1.29725 1.44553 1.27605 1.4964 1.25486 1.54727C1.27606 1.4964 1.30149 1.44553 1.33117 1.39891C1.40535 1.28445 1.29513 1.43494 1.29725 1.43706C1.29301 1.4307 1.35448 1.37347 1.36296 1.36499C1.38203 1.34592 1.40535 1.32896 1.42442 1.30988C1.46682 1.26538 1.27606 1.40526 1.38415 1.3438C1.43714 1.31412 1.48801 1.28233 1.54312 1.25901L1.39051 1.3226C1.47105 1.29081 1.55159 1.26961 1.63849 1.25689C1.58126 1.26537 1.52616 1.27173 1.46893 1.28021C1.65969 1.25901 1.85468 1.27385 2.04544 1.27385H3.34469H5.29041H7.66215H10.2628H12.8995H15.356H17.4183H18.8935H19.5781C19.6247 1.27385 19.6714 1.27597 19.718 1.28021C19.6608 1.27173 19.6057 1.26537 19.5484 1.25689C19.6332 1.26961 19.7159 1.29081 19.7964 1.3226L19.6438 1.25901C19.6947 1.28021 19.7456 1.30564 19.7922 1.33532C19.9066 1.4095 19.7562 1.29929 19.754 1.30141C19.7604 1.29717 19.8176 1.35864 19.8261 1.36711C19.8452 1.38619 19.8621 1.4095 19.8812 1.42858C19.9257 1.47097 19.7858 1.28021 19.8473 1.3883C19.877 1.44129 19.9088 1.49216 19.9321 1.54727C19.9109 1.4964 19.8897 1.44553 19.8685 1.39466C19.9003 1.47521 19.9215 1.55575 19.9342 1.64265C19.9257 1.58542 19.9194 1.53031 19.9109 1.47309C19.9236 1.51124 19.9257 1.55151 19.9257 1.58966C19.93 1.92242 20.214 2.24035 20.5616 2.22551C20.9007 2.21067 21.2038 1.94573 21.1974 1.58966C21.1847 0.712161 20.4747 0.00848779 19.5972 0H19.328H17.8549H15.4387H12.4226H9.21784H6.1615H3.63291H2.00725H1.64269C1.07253 0 0.563849 0.267059 0.248056 0.743941C-0.0401991 1.17845 0.00218932 1.69349 0.00218932 2.18733V3.6689V3.96351C0.00218932 4.30688 0.292565 4.59936 0.638038 4.59936H1.17428H2.62403H4.76686H7.39083H10.2437H13.1432H15.8371H18.1135H19.7561C20.0147 4.59936 20.2733 4.60148 20.5319 4.59936H20.5658C20.9092 4.59936 21.2016 4.30899 21.2016 3.96351V1.88427V1.58966C21.2016 1.25689 20.9091 0.938967 20.5658 0.953811C20.2161 0.968647 19.9257 1.23359 19.9257 1.58966L19.9257 1.58967Z" fill="currentColor"/>
<path d="M18.952 3.96379V5.20797V8.1732V11.7488V14.8434C18.952 15.3308 18.9562 15.8205 18.952 16.308C18.952 16.3419 18.9499 16.3758 18.9456 16.4097C18.9541 16.3525 18.9604 16.2974 18.9689 16.2401C18.9604 16.2974 18.9477 16.3503 18.9265 16.4033L18.9901 16.2507C18.9732 16.2889 18.9541 16.3249 18.9329 16.3609C18.9223 16.3821 18.8735 16.4415 18.9435 16.3525C19.0156 16.2592 18.9562 16.3313 18.9393 16.3503C18.9371 16.3525 18.899 16.3885 18.899 16.3864C18.8926 16.38 19.0389 16.2931 18.9626 16.3355C18.9223 16.3588 18.8841 16.38 18.8417 16.3991C18.8926 16.3779 18.9435 16.3567 18.9944 16.3355C18.9414 16.3546 18.8884 16.3694 18.8312 16.3779C18.8884 16.3694 18.9435 16.3631 19.0007 16.3546C18.8312 16.3737 18.6574 16.3609 18.4878 16.3609H17.2839H15.4929H13.3013H10.8978H8.47093H6.21151H4.30606H2.94321C2.73338 16.3609 2.52142 16.3631 2.31159 16.3609C2.27555 16.3609 2.23952 16.3588 2.20349 16.3546C2.26072 16.3631 2.31582 16.3694 2.37305 16.3779C2.31582 16.3694 2.26283 16.3567 2.20985 16.3355C2.26072 16.3567 2.31159 16.3779 2.36245 16.3991C2.3243 16.3821 2.28827 16.3631 2.25224 16.3419C2.23104 16.3313 2.1717 16.2825 2.26072 16.3525C2.35397 16.4245 2.28191 16.3652 2.26283 16.3482C2.26072 16.3461 2.22468 16.3079 2.2268 16.3079C2.23316 16.3016 2.32006 16.4478 2.27767 16.3715C2.25436 16.3313 2.23316 16.2931 2.21409 16.2507C2.23528 16.3016 2.25648 16.3525 2.27767 16.4033C2.2586 16.3503 2.24376 16.2973 2.23528 16.2401C2.24376 16.2974 2.25012 16.3525 2.25859 16.4097C2.24376 16.2783 2.25224 16.1426 2.25224 16.0112V15.1189V12.1749V8.59925V5.48566C2.25224 4.98547 2.26495 4.48313 2.25224 3.98294V3.96174L1.61639 4.59759H2.09539H3.40526H5.33613H7.70151H10.2831H12.888H15.317H17.3793H18.8566C19.0897 4.59759 19.325 4.59971 19.5581 4.59759H19.5878C19.9206 4.59759 20.2385 4.30509 20.2237 3.96174C20.2088 3.61626 19.9439 3.32589 19.5878 3.32589H19.1088H17.7989H15.8681H13.5027H10.9211H8.31622H5.88724H3.82494H2.34764C2.11449 3.32589 1.87922 3.32377 1.64606 3.32589H1.61639C1.27302 3.32589 0.980539 3.61627 0.980539 3.96174V4.89644V7.21946V10.2377V13.2241V15.4856V16.1278C0.980539 16.3165 0.9763 16.503 1.03353 16.6874C1.20733 17.2745 1.73933 17.6348 2.33918 17.6348H2.70797H4.35061H6.86013H9.85291H12.9389H15.7388H17.8435H18.8757C19.4735 17.6348 20.0585 17.2449 20.1898 16.6365C20.228 16.4564 20.228 16.2911 20.228 16.113V14.4534V11.7299V8.63324V5.88421V4.19494V3.96392C20.228 3.63115 19.9355 3.31322 19.5921 3.32807C19.2424 3.3429 18.952 3.60785 18.952 3.96392L18.952 3.96379Z" fill="currentColor"/>
</svg>
