<svg width="16" height="17" viewBox="0 0 16 17" fill="none" xmlns="http://www.w3.org/2000/svg">
<path d="M1.06147 9.8071L4.32351 6.5449C4.54524 6.32317 4.90419 6.32349 5.12561 6.5449C5.34734 6.76663 5.34734 7.12574 5.12561 7.34716L1.86357 10.6094C0.890371 11.5826 0.890371 13.166 1.86357 14.1392C2.33506 14.6107 2.96176 14.8702 3.62841 14.8702C4.29507 14.8702 4.92177 14.6106 5.39326 14.1392L8.65529 10.8767C8.87703 10.655 9.23597 10.6553 9.45739 10.8767C9.67912 11.0984 9.67912 11.4575 9.45739 11.6789L6.19535 14.9411C5.50974 15.6268 4.59796 16.0045 3.62858 16.0045C2.65886 16.0045 1.74725 15.6269 1.0618 14.9411C-0.35388 13.5256 -0.35388 11.2225 1.06148 9.80734L1.06147 9.8071ZM14.1368 5.39529C15.11 4.4221 15.11 2.83864 14.1368 1.86549C13.6654 1.394 13.0387 1.13445 12.372 1.13445C11.7053 1.13445 11.0786 1.39401 10.6072 1.86549L7.34512 5.12768C7.12339 5.34942 6.76444 5.3491 6.54302 5.12768C6.32129 4.90595 6.32129 4.54684 6.54302 4.32542L9.8049 1.06339C10.4905 0.377773 11.4023 0 12.3717 0C13.3414 0 14.253 0.377623 14.9385 1.06339C16.3538 2.47878 16.3538 4.78184 14.9385 6.19719L11.6764 9.45939C11.5656 9.57017 11.4205 9.62541 11.2752 9.62541C11.1299 9.62541 10.985 9.57002 10.874 9.45939C10.6523 9.23765 10.6523 8.87855 10.874 8.65713L14.1368 5.39529ZM11.9308 4.07155C12.1525 4.29296 12.1525 4.65223 11.9308 4.87365L4.87165 11.9328C4.76086 12.0436 4.61573 12.0988 4.47045 12.0988C4.32516 12.0988 4.18019 12.0434 4.06925 11.9328C3.84751 11.7114 3.84751 11.3521 4.06925 11.1307L11.1288 4.07155C11.3505 3.84982 11.7093 3.84982 11.9309 4.07155H11.9308Z" fill="#7AD81B"/>
</svg>
