<svg width="16" height="20" viewBox="0 0 16 20" fill="none" xmlns="http://www.w3.org/2000/svg">
<path d="M15.3333 2.66665H11.7467L10.9667 1.10668C10.8004 0.773498 10.5443 0.493425 10.2275 0.29792C9.91073 0.102534 9.54572 -0.000738866 9.17337 3.99213e-06H6.82663C6.45431 -0.000740047 6.08929 0.102534 5.77245 0.29792C5.45564 0.493456 5.19954 0.773502 5.03333 1.10668L4.25325 2.66665H0.666658C0.428414 2.66665 0.208334 2.79373 0.0892858 2.99998C-0.0297619 3.20623 -0.0297619 3.4604 0.0892858 3.66665C0.208334 3.8729 0.428422 3.99998 0.666658 3.99998H1.33333V16.6667C1.33333 17.5507 1.68452 18.3985 2.30967 19.0237C2.93482 19.6488 3.78259 20 4.66666 20H11.3333C12.2174 20 13.0652 19.6488 13.6903 19.0237C14.3155 18.3985 14.6667 17.5507 14.6667 16.6667V3.99998H15.3333C15.5716 3.99998 15.7917 3.8729 15.9107 3.66665C16.0298 3.4604 16.0298 3.20623 15.9107 2.99998C15.7917 2.79373 15.5716 2.66665 15.3333 2.66665ZM6.22666 1.69998C6.28262 1.58897 6.36833 1.49596 6.47443 1.43108C6.58038 1.36635 6.70241 1.33242 6.82667 1.33331H9.17341C9.29767 1.33242 9.41969 1.36635 9.52564 1.43108C9.63175 1.49596 9.71746 1.58897 9.77341 1.69998L10.2533 2.66665H5.74666L6.22666 1.69998ZM13.3333 16.6669C13.3333 17.1974 13.1226 17.706 12.7476 18.0811C12.3725 18.4561 11.8639 18.6669 11.3333 18.6669H4.66666C4.13615 18.6669 3.62754 18.4561 3.25238 18.0811C2.87737 17.706 2.66666 17.1974 2.66666 16.6669V4.00017H13.3333V16.6669ZM8.66667 7.33351V15.3335C8.66667 15.5718 8.53959 15.7918 8.33333 15.9109C8.12708 16.0299 7.87291 16.0299 7.66667 15.9109C7.46042 15.7918 7.33333 15.5718 7.33333 15.3335V7.33351C7.33333 7.09527 7.46041 6.87519 7.66667 6.75614C7.87292 6.63709 8.12709 6.63709 8.33333 6.75614C8.53958 6.87519 8.66667 7.09527 8.66667 7.33351ZM11.3333 6.66684C11.5101 6.66684 11.6798 6.73708 11.8048 6.86208C11.9298 6.98708 12 7.15672 12 7.33351V15.3335C12 15.5718 11.8729 15.7918 11.6667 15.9109C11.4604 16.0299 11.2063 16.0299 11 15.9109C10.7938 15.7918 10.6667 15.5718 10.6667 15.3335V7.33351C10.6667 7.15672 10.7369 6.98708 10.8619 6.86208C10.9869 6.73708 11.1566 6.66684 11.3333 6.66684ZM5.33333 7.33351V15.3335C5.33333 15.5718 5.20625 15.7918 5 15.9109C4.79374 16.0299 4.53958 16.0299 4.33333 15.9109C4.12708 15.7918 4 15.5718 4 15.3335V7.33351C4 7.09527 4.12708 6.87519 4.33333 6.75614C4.53958 6.63709 4.79375 6.63709 5 6.75614C5.20624 6.87519 5.33333 7.09527 5.33333 7.33351Z" fill="#828282"/>
</svg>
