<svg width="16" height="22" viewBox="0 0 16 22" fill="none" xmlns="http://www.w3.org/2000/svg">
<path d="M14.9438 5.59457C14.7185 5.36659 14.4557 5.16598 14.1758 5.00893V0.253318C14.1758 0.11352 14.0623 0 13.9225 0H10.8791C10.7393 0 10.6258 0.11352 10.6258 0.253318V5.00973C9.49898 5.64604 8.80514 6.83036 8.80514 8.13722V10.1227L0.253318 10.1226C0.11352 10.1226 0 10.2361 0 10.3759V21.1459C0 21.2857 0.11352 21.3992 0.253318 21.3992C7.51811 21.3992 12.7889 21.3981 15.7467 21.3981C15.8865 21.3981 16 21.2846 16 21.1448V8.13711C15.9997 7.1789 15.6243 6.2757 14.9437 5.59477L14.9438 5.59457ZM13.6681 0.508137V2.54788H11.1341V0.508137H13.6681ZM10.9943 5.38716C11.0794 5.34393 11.1329 5.25685 11.1329 5.16152V3.05474H13.6696V5.16152C13.6696 5.25747 13.7241 5.34533 13.8097 5.38809C14.0925 5.52929 14.3599 5.72383 14.585 5.95179C15.6068 6.97425 15.4936 8.05237 15.4936 8.97152H9.31238V8.13724C9.31238 6.96924 9.95681 5.9154 10.9945 5.38714L10.9943 5.38716ZM9.31222 9.47796H15.4934V17.4597L11.2676 17.4599V10.3758C11.2676 10.0381 10.9778 10.1225 9.31154 10.1225L9.3117 9.47794L9.31222 9.47796ZM7.29874 12.4214C6.4391 11.7606 6.75634 11.7522 5.63547 12.6159L4.83292 11.9975C4.78736 11.9623 4.73293 11.9448 4.67819 11.9448C4.62345 11.9448 4.56903 11.9623 4.52347 11.9975L3.9733 12.4214L3.96957 10.6292H7.2977L7.29874 12.4214ZM0.506887 10.6292H3.46304C3.46817 12.9345 3.38778 13.0544 3.60999 13.1631C3.69646 13.2057 3.79955 13.1956 3.87622 13.1364L4.67845 12.5179C5.82592 13.4023 5.42938 13.4147 6.59304 12.5179C7.31287 13.0712 7.44803 13.2692 7.66447 13.1631C7.75093 13.1205 7.80567 13.032 7.80567 12.9358L7.80427 10.6292C8.01871 10.6292 9.38776 10.6298 10.7612 10.6298V20.8926H0.506714L0.506887 10.6292ZM11.2681 20.8916V17.9664H15.4935V20.8916H11.2681Z" fill="#222222"/>
<path d="M7.252 14.0898H4.01097C3.54819 14.0898 3.17188 14.4665 3.17188 14.9293C3.17188 15.392 3.5482 15.7687 4.01097 15.7687H7.252C7.71479 15.7687 8.0911 15.392 8.0911 14.9293C8.0911 14.4665 7.71478 14.0898 7.252 14.0898ZM7.252 15.2619H4.01097C3.82763 15.2619 3.67866 15.1126 3.67866 14.9291C3.67866 14.7457 3.82763 14.5963 4.01097 14.5963H7.252C7.43535 14.5963 7.58432 14.7456 7.58432 14.9291C7.58432 15.1126 7.4355 15.2619 7.252 15.2619Z" fill="#222222"/>
</svg>
