<svg width="20" height="20" viewBox="0 0 20 20" fill="none" xmlns="http://www.w3.org/2000/svg">
<path d="M18.4307 6.93916C18.4597 6.55934 18.5223 5.50721 18.4182 4.46652C18.3777 4.06203 18.299 3.66059 18.1843 3.27352C18.0859 2.9412 18.0625 1.49603 18.0837 0.580193C18.0869 0.43559 18.033 0.29897 17.9323 0.195734C17.8309 0.0922158 17.6952 0.0351602 17.5497 0.0351602H15.459C15.3136 0.0351602 15.1777 0.0922196 15.0765 0.195879C14.9754 0.299104 14.9218 0.435869 14.9252 0.580338C14.9459 1.49633 14.9226 2.94177 14.8243 3.27352C14.7096 3.66073 14.6309 4.06218 14.5904 4.46652C14.4861 5.50706 14.5487 6.55938 14.5779 6.93915C13.9667 7.36528 13.5109 7.95601 13.2521 8.63127C12.9932 7.95616 12.5374 7.36539 11.9264 6.9393C11.9554 6.55949 12.018 5.50735 11.9139 4.46667C11.8734 4.06218 11.7947 3.66073 11.68 3.27367C11.5816 2.94134 11.5582 1.49618 11.5794 0.580338C11.5826 0.435735 11.5287 0.299115 11.428 0.195879C11.3266 0.0923608 11.1909 0.0353052 11.0454 0.0353052H8.95474C8.80926 0.0353052 8.67337 0.0923645 8.57217 0.196024C8.47112 0.299249 8.41755 0.436014 8.42089 0.580483C8.44165 1.49647 8.41828 2.94191 8.31999 3.27367C8.20529 3.66088 8.1266 4.06232 8.08609 4.46666C7.98185 5.5072 8.04443 6.55952 8.07361 6.9393C7.46239 7.36527 7.00665 7.95601 6.74778 8.63127C6.48891 7.95616 6.03316 7.36538 5.42209 6.9393C5.45113 6.55948 5.5137 5.50735 5.4096 4.46666C5.3691 4.06217 5.29041 3.66073 5.17571 3.27367C5.07728 2.94134 5.0539 1.49618 5.0751 0.580335C5.07829 0.435731 5.02443 0.299112 4.92367 0.195876C4.82233 0.092357 4.68658 0.0353015 4.54111 0.0353015L2.4503 0.0351562C2.30482 0.0351562 2.16893 0.0922156 2.06773 0.195875C1.96668 0.2991 1.91311 0.435865 1.91645 0.580334C1.93721 1.49632 1.91384 2.94176 1.81555 3.27352C1.70085 3.66073 1.62216 4.06217 1.58165 4.46652C1.47741 5.50705 1.53999 6.55937 1.56917 6.93915C0.583788 7.62645 0 8.74102 0 9.9497V17.7649C0 18.8165 0.855704 19.672 1.90743 19.672H5.08393C5.79811 19.672 6.42081 19.2773 6.74777 18.6951C7.07473 19.2773 7.69758 19.672 8.4116 19.672H11.5881C12.3023 19.672 12.925 19.2773 13.2519 18.6951C13.5789 19.2773 14.2018 19.672 14.9158 19.672H18.0923C19.144 19.672 19.9997 18.8164 19.9997 17.7649L20 9.95007C20 8.74128 19.4161 7.62667 18.4307 6.93937L18.4307 6.93916ZM0.487767 11.4282H6.50404V14.4704H0.487767V11.4282ZM6.99168 11.4282H13.0083V14.4704H6.99168V11.4282ZM13.496 11.4282H19.5122V14.4704H13.496V11.4282ZM15.4252 0.536708C15.4314 0.530319 15.4422 0.522915 15.4589 0.522915H17.5495C17.5662 0.522915 17.577 0.53032 17.5832 0.536708C17.5893 0.542805 17.5963 0.553404 17.5957 0.569084C17.5909 0.781926 17.587 1.15257 17.5906 1.56056H15.4176C15.4212 1.15257 15.4175 0.781792 15.4127 0.568935C15.4122 0.55311 15.4194 0.542657 15.4252 0.536704L15.4252 0.536708ZM14.9644 7.26734C15.0416 7.21798 15.0844 7.12956 15.0757 7.03838C15.0744 7.02546 14.9532 5.73957 15.0756 4.51506C15.113 4.14108 15.1859 3.76996 15.2921 3.41193C15.3616 3.17673 15.3951 2.62082 15.4097 2.04848H17.5989C17.6134 2.62067 17.6468 3.17644 17.7165 3.41193C17.8226 3.76995 17.8955 4.14104 17.933 4.51506C18.0553 5.73953 17.9341 7.02545 17.9328 7.03838C17.9241 7.12956 17.9669 7.21798 18.0442 7.26734C18.9635 7.85548 19.5123 8.85829 19.5123 9.94978V10.9404H13.496V9.94978C13.496 8.85859 14.045 7.85578 14.9644 7.26734H14.9644ZM8.92096 0.536708C8.92721 0.530319 8.93795 0.522915 8.95465 0.522915H11.0453C11.062 0.522915 11.0727 0.53032 11.079 0.536708C11.0851 0.542805 11.0921 0.553404 11.0915 0.569084C11.0867 0.781926 11.0828 1.15257 11.0864 1.56056H8.91341C8.91704 1.15257 8.91326 0.781792 8.90847 0.568935C8.90804 0.55311 8.91515 0.542657 8.92096 0.536704L8.92096 0.536708ZM8.46016 7.26734C8.5374 7.21798 8.58023 7.12956 8.57152 7.03838C8.57021 7.02546 8.44898 5.73957 8.57137 4.51506C8.60883 4.14108 8.68172 3.76996 8.78784 3.41193C8.85739 3.17673 8.89092 2.62082 8.90545 2.04848H11.0947C11.1092 2.62067 11.1426 3.17644 11.2123 3.41193C11.3184 3.76995 11.3913 4.14104 11.4287 4.51506C11.5511 5.73953 11.4299 7.02545 11.4286 7.03838C11.4199 7.12956 11.4627 7.21798 11.54 7.26734C12.4593 7.85578 13.0082 8.85855 13.0082 9.94978V10.9404H6.99157V9.94978C6.99157 8.85859 7.54053 7.85578 8.45998 7.26734H8.46016ZM2.41675 0.536708C2.423 0.530319 2.43374 0.522915 2.45044 0.522915H4.5411C4.55779 0.522915 4.56854 0.53032 4.57478 0.536708C4.58088 0.542805 4.58785 0.553404 4.58727 0.569084C4.58248 0.781926 4.57856 1.15257 4.58219 1.56056H2.40935C2.41298 1.15257 2.4092 0.781792 2.40441 0.568935C2.40383 0.55311 2.41094 0.542657 2.41675 0.536704L2.41675 0.536708ZM1.95595 7.26734C2.03319 7.21798 2.07602 7.12956 2.06731 7.03838C2.066 7.02546 1.94477 5.73957 2.06716 4.51506C2.10462 4.14108 2.17751 3.76996 2.28363 3.41193C2.35318 3.17673 2.38671 2.62082 2.40123 2.04848H4.59047C4.60498 2.62067 4.63838 3.17644 4.70807 3.41193C4.8142 3.76995 4.88708 4.14104 4.92454 4.51506C5.04693 5.73953 4.9257 7.02545 4.92439 7.03838C4.91568 7.12956 4.95851 7.21798 5.03575 7.26734C5.95505 7.85578 6.50401 8.85855 6.50401 9.94978V10.9404H0.487729V9.94978C0.487729 8.85829 1.03654 7.85548 1.95584 7.26734H1.95595ZM5.0841 19.1839H1.90745C1.12463 19.1839 0.487841 18.5471 0.487841 17.7646V14.958H6.50412V17.7646C6.50412 18.5471 5.86718 19.1839 5.08422 19.1839H5.0841ZM11.5884 19.1839H8.41188C7.62891 19.1839 6.99198 18.5471 6.99198 17.7646V14.958H13.0086V17.7646C13.0085 18.5471 12.3715 19.1839 11.5886 19.1839H11.5884ZM18.0927 19.1839H14.9162C14.1332 19.1839 13.4963 18.5471 13.4963 17.7646V14.958H19.5125V17.7646C19.5124 18.5471 18.8756 19.1839 18.0928 19.1839H18.0927Z" fill="#222222"/>
</svg>
