<svg width="15" height="18" viewBox="0 0 15 18" fill="none" xmlns="http://www.w3.org/2000/svg">
<path d="M12.1011 3.78588L11.4293 4.64922C13.2716 6.08249 14.1908 8.40348 13.8282 10.7067C13.5624 12.397 12.6542 13.8825 11.2709 14.8896C9.88745 15.8969 8.1941 16.3049 6.50507 16.0392C3.01618 15.4896 0.623832 12.204 1.17238 8.71531C1.43831 7.02488 2.34634 5.53942 3.72963 4.53247C4.96786 3.63102 6.45425 3.21145 7.96409 3.32336L6.66706 4.6841L7.54086 5.51757L9.39975 3.56599L9.40011 3.56654L10.2331 2.69204L9.36022 1.85927L9.35948 1.85946L7.40865 0L6.57536 0.874497L7.99654 2.2283C6.24459 2.10907 4.52265 2.60173 3.08581 3.64765C1.46608 4.82671 0.402919 6.56604 0.0916034 8.54477C-0.550298 12.6292 2.25014 16.4763 6.3348 17.1196C6.72929 17.1815 7.12396 17.2122 7.51587 17.2122C9.08928 17.2122 10.6183 16.7175 11.9146 15.7734C13.5343 14.5944 14.5977 12.855 14.9088 10.8763C15.333 8.18041 14.257 5.46343 12.1008 3.78589L12.1011 3.78588Z" fill="#B3140C"/>
<path d="M8.22498 13.582V12.8005C9.15115 12.7038 10.059 12.1236 10.059 11.0148C10.059 9.5202 8.66195 9.34786 7.64164 9.22188C6.97245 9.14239 6.4607 9.04826 6.4607 8.63159C6.4607 8.05763 7.25737 7.99574 7.59968 7.99574C8.10496 7.99574 8.64526 8.23475 8.82966 8.5397L8.8716 8.60948L9.86626 8.14942L9.82523 8.06572C9.4399 7.27838 8.74468 7.05695 8.22491 6.96796V6.28119H7.05992V6.96562C5.93374 7.12568 5.26455 7.74451 5.26455 8.63167C5.26455 10.0701 6.57714 10.2168 7.53519 10.3241C8.40917 10.4272 8.81646 10.647 8.81646 11.0149C8.81646 11.7129 7.86174 11.7673 7.5689 11.7673C6.92095 11.7673 6.29494 11.442 6.11308 11.0105L6.07773 10.9263L4.99609 11.3847L5.03199 11.4687C5.3633 12.2444 6.0816 12.7286 7.05976 12.8385V13.5824L8.22495 13.5822L8.22498 13.582Z" fill="#B3140C"/>
</svg>
