<svg width="19" height="19" viewBox="0 0 19 19" fill="currentColor" xmlns="http://www.w3.org/2000/svg">
<path d="M9.48734 10.1333C10.7968 10.1316 12.0925 10.4011 13.2924 10.9249V12.3276C10.8365 11.0532 7.90414 11.0939 5.4849 12.4364C3.06551 13.7789 1.48187 16.244 1.26851 19H0C0.16244 16.5968 1.2322 14.3446 2.99332 12.6986C4.75443 11.0529 7.07555 10.1359 9.48755 10.1334L9.48734 10.1333ZM13.9267 4.43336C13.9267 5.60895 13.4589 6.73667 12.6263 7.5681C11.7938 8.39954 10.6647 8.8665 9.48734 8.8665C8.30993 8.8665 7.18089 8.39956 6.34834 7.5681C5.51578 6.73667 5.04797 5.60895 5.04797 4.43336C5.04797 3.25754 5.51575 2.12982 6.34834 1.29839C7.18089 0.467178 8.30993 0 9.48734 0C10.6643 0.00127233 11.7927 0.468845 12.6249 1.29986C13.4572 2.13107 13.9252 3.25792 13.9267 4.43336ZM12.6584 4.43336H12.6582C12.6582 3.5934 12.3242 2.78803 11.7294 2.1941C11.1348 1.60032 10.3284 1.26658 9.48734 1.26658C8.64625 1.26658 7.83978 1.60035 7.24526 2.1941C6.65052 2.78803 6.31649 3.5934 6.31649 4.43336C6.31649 5.27309 6.65049 6.07868 7.24526 6.6724C7.83984 7.26633 8.64625 7.59992 9.48734 7.59992C10.328 7.59907 11.134 7.26508 11.7286 6.67137C12.3229 6.07782 12.6573 5.27288 12.6582 4.43336H12.6584ZM14.561 18.9997H15.8293V12.0333H14.5607L14.561 18.9997ZM12.0241 18.9997H13.2924V13.6163H12.0241V18.9997ZM19 9.34127L17.7317 8.39128L16.4634 9.34127V10.9247L17.0974 10.4497V18.9996H18.3657V10.4497L19 10.9247V9.34127Z" fill="currentColor"/>
</svg>
