<svg width="13" height="20" viewBox="0 0 13 20" fill="none" xmlns="http://www.w3.org/2000/svg">
<path d="M8.03465 19.3933C8.05878 19.5617 8.14265 19.7157 8.27114 19.8272C8.39947 19.9387 8.5639 20 8.73402 20L12.2937 20C12.481 20 12.6607 19.9256 12.7932 19.7932C12.9256 19.6607 13 19.481 13 19.2937L13 0.930053C13 0.74276 12.9256 0.563031 12.7932 0.430603C12.6607 0.298174 12.481 0.223759 12.2937 0.223759L8.73402 0.223759C8.56392 0.223759 8.39948 0.285086 8.27114 0.396547C8.14265 0.508008 8.05878 0.662037 8.03465 0.830413C7.94889 1.39593 7.59639 1.88574 7.08713 2.1465C6.57807 2.40726 5.97474 2.40726 5.46548 2.1465C4.95642 1.88574 4.60388 1.39589 4.51812 0.830413C4.49399 0.662037 4.40996 0.507851 4.28148 0.396385C4.15283 0.284924 3.98824 0.223597 3.81815 0.223755L0.99297 0.223755C0.805676 0.223755 0.625946 0.29817 0.493518 0.430598C0.36109 0.563026 0.286674 0.742756 0.286674 0.930049L0.286674 19.2937C0.286674 19.481 0.361089 19.6607 0.493517 19.7932C0.625945 19.9256 0.805676 20 0.992969 20L3.84777 20C4.01788 20.0002 4.18247 19.9388 4.3111 19.8274C4.43959 19.7159 4.52362 19.5617 4.54774 19.3933C4.62893 18.8292 4.97797 18.3393 5.48453 18.0782C5.99108 17.8171 6.59268 17.8171 7.09924 18.0782C7.60579 18.3393 7.95482 18.8292 8.03603 19.3933L8.03465 19.3933ZM3.29602 18.5874L1.69915 18.5874L1.69915 1.63634L3.26846 1.63634C3.49406 2.25671 3.90493 2.79272 4.44551 3.1719C4.98597 3.55091 5.62999 3.75462 6.29007 3.75522C6.94672 3.75286 7.58662 3.54822 8.1228 3.16908C8.65882 2.78992 9.06512 2.25469 9.28613 1.63634L11.5873 1.63634L11.5873 18.5874L9.28613 18.5874C8.991 17.7581 8.36512 17.0882 7.5576 16.7376C6.75009 16.3872 5.83348 16.3872 5.02596 16.7376C4.21845 17.0883 3.59255 17.7581 3.29744 18.5874L3.29602 18.5874Z" fill="#828282"/>
<path d="M8.64465 12.5838C8.64465 12.7788 8.80278 12.9369 8.9978 12.9369C9.19282 12.9369 9.35095 12.7788 9.35095 12.5838L9.35095 11.1712L10.1752 11.1712C10.3702 11.1712 10.5283 11.013 10.5283 10.818C10.5283 10.623 10.3702 10.4649 10.1752 10.4649L9.35095 10.4649L9.35095 10.2297C9.35978 9.81819 9.20244 9.4204 8.91458 9.12622C8.6267 8.83203 8.23242 8.6662 7.82075 8.6662C7.40912 8.6662 7.01481 8.83205 6.72692 9.12622C6.43889 9.4204 6.28172 9.81819 6.29055 10.2297L6.29055 10.4649L4.64275 10.4649L4.64275 9.05228C4.64275 8.85727 4.48462 8.69914 4.2896 8.69914C4.09458 8.69914 3.93645 8.85727 3.93645 9.05228L3.93645 10.4649L3.11223 10.4649C2.91721 10.4649 2.75908 10.623 2.75908 10.818C2.75908 11.013 2.91721 11.1712 3.11223 11.1712L3.93645 11.1712L3.93645 11.4064C3.92763 11.8179 4.08497 12.2156 4.37282 12.5098C4.6607 12.804 5.05498 12.9698 5.46665 12.9698C5.87828 12.9698 6.27259 12.804 6.56048 12.5098C6.84836 12.2156 7.00569 11.8179 6.99685 11.4064L6.99685 11.1712L8.64465 11.1712L8.64465 12.5838ZM6.29055 11.4064C6.29702 11.629 6.21314 11.8448 6.05801 12.0047C5.90272 12.1645 5.68942 12.2547 5.46666 12.2547C5.2439 12.2547 5.03058 12.1645 4.87531 12.0047C4.72018 11.8448 4.63631 11.629 4.64277 11.4064L4.64277 11.1712L6.29058 11.1712L6.29055 11.4064ZM6.99685 10.4649L6.99685 10.2297C6.99023 10.007 7.07426 9.79122 7.22939 9.63136C7.38468 9.4715 7.59799 9.38132 7.82074 9.38132C8.0435 9.38132 8.25683 9.4715 8.41193 9.63136C8.56722 9.79122 8.65109 10.0071 8.64463 10.2297L8.64463 10.4649L6.99685 10.4649Z" fill="#828282"/>
<path d="M10.5283 5.87396C10.5283 5.67894 10.3702 5.52081 10.1752 5.52081L9.46888 5.52081C9.27386 5.52081 9.11573 5.67894 9.11573 5.87396C9.11573 6.06898 9.27386 6.22711 9.46888 6.22711L10.1752 6.22711C10.2688 6.22711 10.3587 6.1899 10.4249 6.12369C10.4911 6.05747 10.5283 5.96761 10.5283 5.87396Z" fill="#828282"/>
<path d="M8.4082 5.87396C8.4082 5.67894 8.25007 5.52081 8.05506 5.52081L7.34876 5.52081C7.15374 5.52081 6.99561 5.67894 6.99561 5.87396C6.99561 6.06898 7.15374 6.22711 7.34876 6.22711L8.05506 6.22711C8.1487 6.22711 8.23857 6.1899 8.30478 6.12369C8.371 6.05747 8.4082 5.96761 8.4082 5.87396Z" fill="#828282"/>
<path d="M6.29004 5.87396C6.29004 5.67894 6.13191 5.52081 5.93689 5.52081L5.2306 5.52081C5.03558 5.52081 4.87745 5.67894 4.87745 5.87396C4.87745 6.06898 5.03558 6.22711 5.2306 6.22711L5.93689 6.22711C6.03054 6.22711 6.1204 6.1899 6.18662 6.12369C6.25283 6.05747 6.29004 5.96761 6.29004 5.87396Z" fill="#828282"/>
<path d="M4.17187 5.87396C4.17187 5.67894 4.01375 5.52081 3.81873 5.52081L3.11243 5.52081C2.91742 5.52081 2.75929 5.67894 2.75929 5.87396C2.75929 6.06898 2.91742 6.22711 3.11243 6.22711L3.81873 6.22711C3.91237 6.22711 4.00224 6.1899 4.06845 6.12369C4.13467 6.05747 4.17187 5.96761 4.17187 5.87396Z" fill="#828282"/>
</svg>
