<svg width="14" height="13" viewBox="0 0 14 13" fill="none" xmlns="http://www.w3.org/2000/svg">
<path d="M11.8863 5.74411L11.766 5.06691L12.8713 3.60655L10.9657 1.23702L9.22325 1.93428L8.75363 1.68802L8.25395 0H5.23301L4.73189 1.68658L4.26227 1.93284L2.51985 1.23558L0.61565 3.60511L1.72095 5.06547L1.60069 5.74267L0 6.54444L0.594161 9.38631L2.44395 9.55096L2.78757 10.0234L2.5771 11.7544L5.19003 13L6.3712 11.7572H7.11571L8.29689 13L10.9098 11.7544L10.7008 10.0234L11.0444 9.55096L12.8928 9.38631L13.4869 6.54444L11.8863 5.74411ZM12.1841 8.58755L10.5805 8.72929L9.81026 9.79164L9.98493 11.2448L8.49019 11.9564L7.48369 10.8984H6.00328L4.99678 11.9564L3.50348 11.2434L3.67959 9.79166L2.90931 8.72932L1.30577 8.58758L0.977914 7.01697L2.37099 6.31827L2.63442 4.84788L1.70379 3.62233L2.79048 2.27078L4.30954 2.87926L5.45207 2.2808L5.87299 0.860524H7.61113L8.03205 2.28224L9.17459 2.8807L10.6936 2.27222L11.7803 3.62377L10.8526 4.84932L11.116 6.32115L12.5119 7.01841L12.1841 8.58755Z" fill="currentColor"/>
<path d="M7.18636 9.47252C7.19403 9.52611 7.22073 9.57513 7.26162 9.6106C7.30246 9.64608 7.35479 9.66559 7.40893 9.66559L8.54182 9.66559C8.60143 9.66559 8.65863 9.64191 8.70077 9.59976C8.74292 9.55762 8.7666 9.50042 8.7666 9.44081L8.7666 3.59649C8.7666 3.53688 8.74292 3.47968 8.70077 3.43753C8.65863 3.39539 8.60143 3.37171 8.54182 3.37171L7.40893 3.37171C7.3548 3.37171 7.30246 3.39122 7.26162 3.4267C7.22073 3.46217 7.19403 3.51119 7.18636 3.56478C7.15906 3.74476 7.04688 3.90064 6.8848 3.98363C6.72279 4.06662 6.53078 4.06662 6.3687 3.98363C6.20669 3.90064 6.09449 3.74474 6.0672 3.56478C6.05952 3.51119 6.03278 3.46212 5.99189 3.42664C5.95095 3.39117 5.89856 3.37165 5.84443 3.3717L4.9453 3.3717C4.8857 3.3717 4.8285 3.39539 4.78635 3.43753C4.74421 3.47968 4.72052 3.53688 4.72052 3.59649L4.72052 9.44081C4.72052 9.50042 4.74421 9.55762 4.78635 9.59976C4.8285 9.64191 4.8857 9.66559 4.9453 9.66559L5.85386 9.66559C5.908 9.66564 5.96038 9.64612 6.00132 9.61065C6.04221 9.57518 6.06895 9.52611 6.07663 9.47252C6.10247 9.29299 6.21355 9.13706 6.37477 9.05396C6.53598 8.97087 6.72744 8.97087 6.88865 9.05396C7.04987 9.13705 7.16095 9.29299 7.18679 9.47252L7.18636 9.47252ZM5.67826 9.21603L5.17005 9.21603L5.17005 3.82127L5.66949 3.82127C5.74129 4.0187 5.87205 4.18929 6.04409 4.30997C6.2161 4.43059 6.42106 4.49542 6.63113 4.49561C6.84011 4.49486 7.04377 4.42973 7.21441 4.30907C7.385 4.1884 7.51431 4.01806 7.58464 3.82127L8.31699 3.82127L8.31699 9.21603L7.58464 9.21603C7.49072 8.95211 7.29153 8.73891 7.03453 8.62733C6.77754 8.51579 6.48582 8.51579 6.22882 8.62733C5.97183 8.73892 5.77263 8.95211 5.67871 9.21603L5.67826 9.21603Z" fill="currentColor"/>
<path d="M7.98047 5.16989C7.98047 5.10782 7.93014 5.0575 7.86808 5.0575L7.6433 5.0575C7.58123 5.0575 7.53091 5.10782 7.53091 5.16989C7.53091 5.23195 7.58123 5.28228 7.6433 5.28228L7.86808 5.28228C7.89788 5.28228 7.92648 5.27044 7.94755 5.24936C7.96863 5.22829 7.98047 5.19969 7.98047 5.16989Z" fill="currentColor"/>
<path d="M7.30566 5.16989C7.30566 5.10782 7.25534 5.0575 7.19327 5.0575L6.96849 5.0575C6.90643 5.0575 6.8561 5.10782 6.8561 5.16989C6.8561 5.23195 6.90643 5.28228 6.96849 5.28228L7.19327 5.28228C7.22308 5.28228 7.25168 5.27044 7.27275 5.24936C7.29382 5.22829 7.30566 5.19969 7.30566 5.16989Z" fill="currentColor"/>
<path d="M6.63184 5.16989C6.63184 5.10782 6.58151 5.0575 6.51945 5.0575L6.29466 5.0575C6.2326 5.0575 6.18227 5.10782 6.18227 5.16989C6.18227 5.23195 6.2326 5.28228 6.29466 5.28228L6.51945 5.28228C6.54925 5.28228 6.57785 5.27044 6.59892 5.24936C6.61999 5.22829 6.63184 5.19969 6.63184 5.16989Z" fill="currentColor"/>
<path d="M5.95703 5.16989C5.95703 5.10782 5.90671 5.0575 5.84464 5.0575L5.61986 5.0575C5.55779 5.0575 5.50747 5.10782 5.50747 5.16989C5.50747 5.23195 5.55779 5.28228 5.61986 5.28228L5.84464 5.28228C5.87444 5.28228 5.90304 5.27044 5.92412 5.24936C5.94519 5.22829 5.95703 5.19969 5.95703 5.16989Z" fill="currentColor"/>
</svg>
