<svg width="20" height="20" viewBox="0 0 20 20" fill="currentColor" xmlns="http://www.w3.org/2000/svg">
<path d="M11.6353 13.8455C11.7595 13.9694 11.829 14.1368 11.829 14.3115C11.829 14.4859 11.7595 14.6535 11.6353 14.7773L7.88614 18.5173C7.02292 19.3829 5.84682 19.8699 4.61958 19.8699C3.39249 19.8699 2.21623 19.3829 1.35317 18.5173C0.486978 17.6617 0 16.4988 0 15.2861C0 14.0733 0.486978 12.9106 1.35317 12.055L5.10237 8.33489V8.33475C5.22723 8.21174 5.39595 8.14256 5.57196 8.14256C5.74781 8.14256 5.91668 8.21174 6.04139 8.33475C6.16745 8.45879 6.23835 8.62767 6.23835 8.80393C6.23835 8.9802 6.16745 9.14907 6.04139 9.27312L2.31209 12.9735C1.47935 13.7997 1.1541 15.004 1.45899 16.1326C1.76372 17.2613 2.65233 18.143 3.78981 18.4453C4.92728 18.7479 6.14098 18.4251 6.97372 17.5989L10.6764 13.8456C10.8019 13.7164 10.9751 13.6434 11.156 13.6434C11.3367 13.6434 11.5099 13.7164 11.6354 13.8456L11.6353 13.8455ZM19.9996 4.58827C20.0151 3.3707 19.535 2.19857 18.6677 1.33718C17.8036 0.480968 16.6325 0 15.4113 0C14.1901 0 13.0188 0.480968 12.1549 1.33718L8.38556 5.0772C8.26144 5.20095 8.19188 5.3685 8.19188 5.54299C8.19188 5.71762 8.26144 5.88503 8.38556 6.00893C8.51058 6.13401 8.68078 6.20436 8.85842 6.20436C9.03591 6.20436 9.20611 6.13401 9.33113 6.00893L13.0805 2.2887C13.9132 1.46243 15.1269 1.1397 16.2644 1.44222C17.4019 1.74459 18.2905 2.62629 18.5952 3.75493C18.9001 4.88357 18.5749 6.08784 17.7421 6.91411L13.9595 10.5881C13.8334 10.7121 13.7625 10.881 13.7625 11.0572C13.7625 11.2334 13.8334 11.4022 13.9595 11.5264C14.0852 11.65 14.2553 11.7191 14.4323 11.718C14.607 11.7173 14.7745 11.6484 14.8985 11.5264L18.6678 7.81945C19.5274 6.9612 20.0068 5.7982 19.9997 4.5883L19.9996 4.58827ZM6.01476 13.892C6.13947 14.015 6.30834 14.0841 6.48419 14.0841C6.66019 14.0841 6.82891 14.015 6.95378 13.892L14.006 6.88096C14.1238 6.71002 14.1542 6.49409 14.0877 6.29778C14.0214 6.10132 13.8661 5.94719 13.6681 5.88142C13.4702 5.81549 13.2526 5.84558 13.0804 5.96254L6.01447 12.9735C5.89451 13.0967 5.82732 13.2615 5.82732 13.4327C5.82732 13.6041 5.8945 13.7688 6.01447 13.892L6.01476 13.892ZM14.0061 15.5637C13.8295 15.5637 13.6601 15.6333 13.5352 15.7573C13.4103 15.8812 13.3402 16.0492 13.3402 16.2244V18.0879C13.3402 18.324 13.4671 18.5422 13.6731 18.6601C13.8792 18.7781 14.1331 18.7781 14.3391 18.6601C14.5451 18.5422 14.6721 18.324 14.6721 18.0879V16.2377C14.6721 16.0625 14.6019 15.8943 14.477 15.7704C14.3522 15.6466 14.1827 15.5769 14.0061 15.5769V15.5637ZM18.2484 13.2312H16.3703C16.1324 13.2312 15.9125 13.3572 15.7936 13.5616C15.6747 13.766 15.6747 14.0179 15.7936 14.2224C15.9125 14.4268 16.1324 14.5527 16.3703 14.5527H18.2484C18.4862 14.5527 18.7061 14.4268 18.825 14.2224C18.9441 14.0179 18.9441 13.766 18.825 13.5616C18.7061 13.3572 18.4862 13.2312 18.2484 13.2312ZM1.77286 6.62345H3.65091C3.8889 6.62345 4.10874 6.49749 4.22766 6.29306C4.34658 6.08863 4.34658 5.83671 4.22766 5.63229C4.10874 5.42786 3.88889 5.3019 3.65091 5.3019H1.77286C1.53503 5.3019 1.31519 5.42786 1.19627 5.63229C1.0772 5.83672 1.0772 6.08864 1.19627 6.29306C1.31519 6.49749 1.53504 6.62345 1.77286 6.62345ZM6.01514 4.2777C6.19173 4.2777 6.36119 4.20808 6.48606 4.08419C6.61092 3.9603 6.68108 3.79215 6.68108 3.61693V1.75347C6.68108 1.51748 6.55414 1.29935 6.34811 1.18135C6.14208 1.06321 5.88819 1.06321 5.68216 1.18135C5.47613 1.29935 5.34919 1.51749 5.34919 1.75347V3.61693C5.34919 3.79215 5.41935 3.9603 5.54422 4.08419C5.66908 4.20808 5.83854 4.2777 6.01514 4.2777Z" fill="currentColor"/>
</svg>
