<svg width="29" height="15" viewBox="0 0 29 15" fill="none" xmlns="http://www.w3.org/2000/svg">
<path d="M14.0357 14.5098C11.3916 14.4879 8.78553 13.8779 6.40599 12.7241C4.02653 11.5705 1.93358 9.90173 0.278929 7.83913L0 7.45793L0.278929 7.07657C1.93418 5.01506 4.02717 3.34742 6.40639 2.19481C8.78585 1.04197 11.3916 0.433073 14.0353 0.411743C16.6782 0.433826 19.2832 1.04321 21.6611 2.19606C24.0393 3.34874 26.1315 5.01574 27.7861 7.07661L28.0651 7.45797L27.7861 7.83932V7.83917C26.1321 9.90117 24.0401 11.5692 21.6619 12.7229C19.2836 13.8765 16.6787 14.4869 14.0353 14.5097L14.0357 14.5098ZM1.63368 7.4578C2.77197 8.80109 7.13729 13.2176 14.0357 13.2176C20.9338 13.2176 25.2823 8.80654 26.4378 7.46341C25.2768 6.10289 20.9342 1.70321 14.0357 1.70321C7.13769 1.70321 2.78917 6.10265 1.63368 7.4574V7.4578Z" fill="#828282"/>
<path d="M14.0368 11.095C13.0729 11.101 12.146 10.7236 11.4605 10.0456C10.7752 9.36758 10.3874 8.44496 10.3829 7.48099C10.3783 6.51687 10.7573 5.59067 11.4364 4.90624C12.1153 4.22185 13.0386 3.83563 14.0027 3.83266C14.9666 3.82953 15.8924 4.20995 16.5757 4.89012C17.259 5.57014 17.6438 6.49401 17.6454 7.45814C17.6454 8.41773 17.2661 9.33843 16.5901 10.0197C15.9144 10.701 14.9966 11.0875 14.0368 11.095ZM14.0368 5.11873C13.4149 5.11873 12.8185 5.36587 12.3788 5.80565C11.939 6.24543 11.6919 6.84183 11.6919 7.46371C11.6919 8.08564 11.939 8.68203 12.3788 9.12177C12.8186 9.56151 13.4149 9.80869 14.0368 9.80869C14.6588 9.80869 15.2553 9.56155 15.6949 9.12177C16.1347 8.68199 16.3818 8.0856 16.3818 7.46371C16.3818 6.84178 16.1347 6.2454 15.6949 5.80565C15.2553 5.36587 14.6587 5.11873 14.0368 5.11873Z" fill="#828282"/>
</svg>
