<svg width="1062" height="59" viewBox="0 0 1062 59" fill="none" xmlns="http://www.w3.org/2000/svg">
<path d="M46.8297 49H48.2857V37.848H46.8297V49ZM57.1832 49H58.6232V43.832C58.6232 41.32 57.0712 40.072 55.0392 40.072C53.8552 40.072 52.7992 40.568 52.2232 41.48V40.232H50.7672V49H52.2232V44.152C52.2232 42.264 53.2472 41.336 54.7352 41.336C56.2072 41.336 57.1832 42.248 57.1832 44.04V49ZM61.2735 49H62.7295V41.432H64.5695V40.232H62.7295V39.608C62.7295 38.472 63.1615 37.992 64.4735 37.992V36.776C62.2335 36.776 61.2735 37.656 61.2735 39.608V40.232H60.1375V41.432H61.2735V49ZM74.5872 44.6C74.5872 41.832 72.6512 40.088 70.1552 40.088C67.6752 40.088 65.7232 41.832 65.7232 44.6C65.7232 47.384 67.6112 49.144 70.0912 49.144C72.5872 49.144 74.5872 47.384 74.5872 44.6ZM67.2112 44.6C67.2112 42.392 68.6032 41.352 70.1392 41.352C71.6432 41.352 73.0992 42.392 73.0992 44.6C73.0992 46.824 71.6112 47.864 70.0912 47.864C68.5712 47.864 67.2112 46.824 67.2112 44.6ZM77.9575 44.232C77.9575 42.2 79.0135 41.576 80.4055 41.576H80.7895V40.072C79.3975 40.072 78.4535 40.68 77.9575 41.656V40.232H76.5015V49H77.9575V44.232ZM95.1263 49H96.5663V43.832C96.5663 41.32 95.0143 40.072 93.0143 40.072C91.6703 40.072 90.4223 40.76 89.9103 42.024C89.3343 40.712 88.1343 40.072 86.6943 40.072C85.5423 40.072 84.5023 40.568 83.9263 41.496V40.232H82.4703V49H83.9263V44.168C83.9263 42.28 84.9343 41.336 86.4063 41.336C87.8463 41.336 88.8063 42.248 88.8063 44.04V49H90.2463V44.168C90.2463 42.28 91.2543 41.336 92.7263 41.336C94.1663 41.336 95.1263 42.248 95.1263 44.04V49ZM98.4107 44.584C98.4107 47.304 100.219 49.144 102.555 49.144C104.171 49.144 105.307 48.312 105.835 47.368V49H107.307V40.232H105.835V41.832C105.323 40.92 104.203 40.088 102.571 40.088C100.219 40.088 98.4107 41.848 98.4107 44.584ZM105.835 44.6C105.835 46.664 104.459 47.864 102.859 47.864C101.259 47.864 99.8987 46.648 99.8987 44.584C99.8987 42.52 101.259 41.352 102.859 41.352C104.459 41.352 105.835 42.568 105.835 44.6ZM109.223 44.6C109.223 47.176 110.759 48.888 112.967 49.112V50.824H113.767C114.455 50.824 114.791 51.016 114.791 51.512C114.791 52.024 114.455 52.216 113.767 52.216H112.215V53.16H114.055C115.191 53.16 116.007 52.52 116.007 51.512C116.007 50.456 115.175 49.912 113.943 49.928V49.128C115.863 48.968 117.127 47.8 117.543 46.184H115.975C115.655 47.288 114.791 47.912 113.495 47.912C111.895 47.912 110.711 46.776 110.711 44.6C110.711 42.456 111.895 41.32 113.495 41.32C114.791 41.32 115.671 41.992 115.975 43.048H117.543C117.095 41.208 115.671 40.088 113.495 40.088C110.999 40.088 109.223 41.848 109.223 44.6ZM127.806 44.6C127.806 41.832 125.87 40.088 123.374 40.088C120.894 40.088 118.942 41.832 118.942 44.6C118.942 47.384 120.83 49.144 123.31 49.144C125.806 49.144 127.806 47.384 127.806 44.6ZM120.43 44.6C120.43 42.392 121.822 41.352 123.358 41.352C124.862 41.352 126.318 42.392 126.318 44.6C126.318 46.824 124.83 47.864 123.31 47.864C121.79 47.864 120.43 46.824 120.43 44.6ZM121.038 39.176H121.886C121.95 38.696 122.222 38.472 122.574 38.472C123.214 38.472 123.534 39.208 124.398 39.208C125.23 39.208 125.87 38.632 125.998 37.544H125.166C125.102 38.008 124.814 38.232 124.462 38.232C123.806 38.232 123.486 37.496 122.638 37.496C121.806 37.496 121.198 38.072 121.038 39.176ZM133.448 41.32C134.952 41.32 136.232 42.264 136.216 43.976H130.68C130.84 42.264 132.024 41.32 133.448 41.32ZM137.544 46.296H135.976C135.656 47.24 134.824 47.912 133.512 47.912C132.024 47.912 130.776 46.936 130.664 45.16H137.672C137.704 44.856 137.72 44.6 137.72 44.28C137.72 41.88 136.056 40.088 133.512 40.088C130.952 40.088 129.176 41.832 129.176 44.6C129.176 47.384 131.016 49.144 133.512 49.144C135.688 49.144 137.096 47.896 137.544 46.296ZM145.946 46.616C145.882 43.48 140.794 44.616 140.794 42.536C140.794 41.832 141.434 41.32 142.506 41.32C143.674 41.32 144.346 41.96 144.41 42.84H145.866C145.77 41.128 144.49 40.088 142.554 40.088C140.602 40.088 139.338 41.192 139.338 42.536C139.338 45.8 144.522 44.664 144.522 46.616C144.522 47.336 143.882 47.912 142.73 47.912C141.498 47.912 140.746 47.272 140.666 46.424H139.162C139.258 48.024 140.698 49.144 142.746 49.144C144.682 49.144 145.946 48.056 145.946 46.616ZM157.323 37.72C154.187 37.72 151.723 40.072 151.723 43.416C151.723 46.76 154.187 49.096 157.323 49.096C160.347 49.096 162.539 46.872 162.795 44.104V42.984H156.795V44.168H161.243C161.019 46.376 159.515 47.784 157.323 47.784C154.971 47.784 153.211 46.088 153.211 43.416C153.211 40.728 154.971 39.032 157.323 39.032C158.891 39.032 160.107 39.784 160.715 41.08H162.459C161.627 38.936 159.675 37.72 157.323 37.72ZM168.448 41.32C169.952 41.32 171.232 42.264 171.216 43.976H165.68C165.84 42.264 167.024 41.32 168.448 41.32ZM172.544 46.296H170.976C170.656 47.24 169.824 47.912 168.512 47.912C167.024 47.912 165.776 46.936 165.664 45.16H172.672C172.704 44.856 172.72 44.6 172.72 44.28C172.72 41.88 171.056 40.088 168.512 40.088C165.952 40.088 164.176 41.832 164.176 44.6C164.176 47.384 166.016 49.144 168.512 49.144C170.688 49.144 172.096 47.896 172.544 46.296ZM176.098 44.232C176.098 42.2 177.154 41.576 178.546 41.576H178.93V40.072C177.538 40.072 176.594 40.68 176.098 41.656V40.232H174.642V49H176.098V44.232ZM180.067 44.584C180.067 47.304 181.875 49.144 184.211 49.144C185.827 49.144 186.963 48.312 187.491 47.368V49H188.963V40.232H187.491V41.832C186.979 40.92 185.859 40.088 184.227 40.088C181.875 40.088 180.067 41.848 180.067 44.584ZM187.491 44.6C187.491 46.664 186.115 47.864 184.515 47.864C182.915 47.864 181.555 46.648 181.555 44.584C181.555 42.52 182.915 41.352 184.515 41.352C186.115 41.352 187.491 42.568 187.491 44.6ZM191.423 49H192.879V40.232H191.423V49ZM192.175 38.808C192.703 38.808 193.135 38.376 193.135 37.816C193.135 37.256 192.703 36.824 192.175 36.824C191.615 36.824 191.183 37.256 191.183 37.816C191.183 38.376 191.615 38.808 192.175 38.808ZM201.665 46.616C201.601 43.48 196.513 44.616 196.513 42.536C196.513 41.832 197.153 41.32 198.225 41.32C199.393 41.32 200.065 41.96 200.129 42.84H201.585C201.489 41.128 200.209 40.088 198.273 40.088C196.321 40.088 195.057 41.192 195.057 42.536C195.057 45.8 200.241 44.664 200.241 46.616C200.241 47.336 199.601 47.912 198.449 47.912C197.217 47.912 196.465 47.272 196.385 46.424H194.881C194.977 48.024 196.417 49.144 198.465 49.144C200.401 49.144 201.665 48.056 201.665 46.616Z" fill="#A5A5A5"/>
<path d="M808.965 43.144V39.048H811.109C812.773 39.048 813.477 39.816 813.477 41.112C813.477 42.36 812.773 43.144 811.109 43.144H808.965ZM814.965 41.112C814.965 39.288 813.733 37.848 811.109 37.848H807.509V49H808.965V44.344H811.109C813.877 44.344 814.965 42.808 814.965 41.112ZM820.247 37.848H816.775V49H820.247C823.911 49 826.167 46.904 826.167 43.448C826.167 39.992 823.911 37.848 820.247 37.848ZM818.231 47.8V39.032H820.247C823.159 39.032 824.679 40.728 824.679 43.448C824.679 46.168 823.159 47.8 820.247 47.8H818.231ZM832.263 47.464L828.759 37.848H827.207L831.415 49H833.095L837.303 37.848H835.767L832.263 47.464Z" fill="#A5A5A5"/>
<path d="M953.221 43.416C953.221 46.76 955.669 49.096 958.789 49.096C961.205 49.096 963.125 47.896 963.957 45.752H962.213C961.605 47.08 960.421 47.832 958.789 47.832C956.453 47.832 954.709 46.136 954.709 43.416C954.709 40.68 956.453 38.984 958.789 38.984C960.421 38.984 961.605 39.736 962.213 41.08H963.957C963.125 38.92 961.205 37.704 958.789 37.704C955.669 37.704 953.221 40.072 953.221 43.416ZM974.445 44.6C974.445 41.832 972.509 40.088 970.013 40.088C967.533 40.088 965.581 41.832 965.581 44.6C965.581 47.384 967.469 49.144 969.949 49.144C972.445 49.144 974.445 47.384 974.445 44.6ZM967.069 44.6C967.069 42.392 968.461 41.352 969.997 41.352C971.501 41.352 972.957 42.392 972.957 44.6C972.957 46.824 971.469 47.864 969.949 47.864C968.429 47.864 967.069 46.824 967.069 44.6ZM982.775 49H984.215V43.832C984.215 41.32 982.663 40.072 980.631 40.072C979.447 40.072 978.391 40.568 977.815 41.48V40.232H976.359V49H977.815V44.152C977.815 42.264 978.839 41.336 980.327 41.336C981.799 41.336 982.775 42.248 982.775 44.04V49ZM986.865 49H988.321V41.432H990.161V40.232H988.321V39.608C988.321 38.472 988.753 37.992 990.065 37.992V36.776C987.825 36.776 986.865 37.656 986.865 39.608V40.232H985.729V41.432H986.865V49ZM991.859 49H993.315V40.232H991.859V49ZM992.611 38.808C993.139 38.808 993.571 38.376 993.571 37.816C993.571 37.256 993.139 36.824 992.611 36.824C992.051 36.824 991.619 37.256 991.619 37.816C991.619 38.376 992.051 38.808 992.611 38.808ZM997.252 44.232C997.252 42.2 998.308 41.576 999.7 41.576H1000.08V40.072C998.692 40.072 997.748 40.68 997.252 41.656V40.232H995.796V49H997.252V44.232ZM1014.42 49H1015.86V43.832C1015.86 41.32 1014.31 40.072 1012.31 40.072C1010.97 40.072 1009.72 40.76 1009.21 42.024C1008.63 40.712 1007.43 40.072 1005.99 40.072C1004.84 40.072 1003.8 40.568 1003.22 41.496V40.232H1001.77V49H1003.22V44.168C1003.22 42.28 1004.23 41.336 1005.7 41.336C1007.14 41.336 1008.1 42.248 1008.1 44.04V49H1009.54V44.168C1009.54 42.28 1010.55 41.336 1012.02 41.336C1013.46 41.336 1014.42 42.248 1014.42 44.04V49ZM1017.71 44.584C1017.71 47.304 1019.51 49.144 1021.85 49.144C1023.47 49.144 1024.6 48.312 1025.13 47.368V49H1026.6V40.232H1025.13V41.832C1024.62 40.92 1023.5 40.088 1021.87 40.088C1019.51 40.088 1017.71 41.848 1017.71 44.584ZM1025.13 44.6C1025.13 46.664 1023.75 47.864 1022.15 47.864C1020.55 47.864 1019.19 46.648 1019.19 44.584C1019.19 42.52 1020.55 41.352 1022.15 41.352C1023.75 41.352 1025.13 42.568 1025.13 44.6ZM1028.52 44.6C1028.52 47.176 1030.05 48.888 1032.26 49.112V50.824H1033.06C1033.75 50.824 1034.09 51.016 1034.09 51.512C1034.09 52.024 1033.75 52.216 1033.06 52.216H1031.51V53.16H1033.35C1034.49 53.16 1035.3 52.52 1035.3 51.512C1035.3 50.456 1034.47 49.912 1033.24 49.928V49.128C1035.16 48.968 1036.42 47.8 1036.84 46.184H1035.27C1034.95 47.288 1034.09 47.912 1032.79 47.912C1031.19 47.912 1030.01 46.776 1030.01 44.6C1030.01 42.456 1031.19 41.32 1032.79 41.32C1034.09 41.32 1034.97 41.992 1035.27 43.048H1036.84C1036.39 41.208 1034.97 40.088 1032.79 40.088C1030.29 40.088 1028.52 41.848 1028.52 44.6ZM1038.24 44.584C1038.24 47.304 1040.04 49.144 1042.38 49.144C1044 49.144 1045.13 48.312 1045.66 47.368V49H1047.13V40.232H1045.66V41.832C1045.15 40.92 1044.03 40.088 1042.4 40.088C1040.04 40.088 1038.24 41.848 1038.24 44.584ZM1045.66 44.6C1045.66 46.664 1044.28 47.864 1042.68 47.864C1041.08 47.864 1039.72 46.648 1039.72 44.584C1039.72 42.52 1041.08 41.352 1042.68 41.352C1044.28 41.352 1045.66 42.568 1045.66 44.6ZM1040.62 39.288H1041.47C1041.53 38.808 1041.8 38.584 1042.16 38.584C1042.8 38.584 1043.12 39.32 1043.98 39.32C1044.81 39.32 1045.45 38.744 1045.58 37.656H1044.75C1044.68 38.12 1044.4 38.344 1044.04 38.344C1043.39 38.344 1043.07 37.608 1042.22 37.608C1041.39 37.608 1040.78 38.184 1040.62 39.288ZM1057.91 44.6C1057.91 41.832 1055.98 40.088 1053.48 40.088C1051 40.088 1049.05 41.832 1049.05 44.6C1049.05 47.384 1050.94 49.144 1053.42 49.144C1055.91 49.144 1057.91 47.384 1057.91 44.6ZM1050.54 44.6C1050.54 42.392 1051.93 41.352 1053.47 41.352C1054.97 41.352 1056.43 42.392 1056.43 44.6C1056.43 46.824 1054.94 47.864 1053.42 47.864C1051.9 47.864 1050.54 46.824 1050.54 44.6Z" fill="#A5A5A5"/>
<line x1="218.875" y1="41.872" x2="262.742" y2="41.872" stroke="#D8413A" stroke-width="2.2561"/>
<line x1="464.096" y1="41.872" x2="507.963" y2="41.872" stroke="#C4C4C4" stroke-width="2.2561"/>
<line x1="703.955" y1="41.872" x2="747.822" y2="41.872" stroke="#C4C4C4" stroke-width="2.2561"/>
<line x1="850.611" y1="41.872" x2="894.478" y2="41.872" stroke="#C4C4C4" stroke-width="2.2561"/>
<path d="M329.117 45.9598C329.117 41.8318 323.101 43.6238 323.101 40.7438C323.101 39.5438 324.045 38.9198 325.245 38.9518C326.605 38.9678 327.309 39.8158 327.405 40.5678H329.005C328.829 38.8718 327.437 37.7038 325.309 37.7038C323.101 37.7038 321.613 38.9518 321.613 40.7918C321.613 44.9358 327.645 43.0158 327.645 46.0238C327.645 47.0798 326.813 47.8798 325.405 47.8798C323.853 47.8798 323.197 46.9518 323.101 46.0238H321.549C321.581 47.8638 323.165 49.1118 325.405 49.1118C327.821 49.1118 329.117 47.5438 329.117 45.9598ZM334.987 41.3198C336.491 41.3198 337.771 42.2638 337.755 43.9758H332.219C332.379 42.2638 333.563 41.3198 334.987 41.3198ZM339.083 46.2958H337.515C337.195 47.2398 336.363 47.9118 335.051 47.9118C333.563 47.9118 332.315 46.9358 332.203 45.1598H339.211C339.243 44.8558 339.259 44.5998 339.259 44.2798C339.259 41.8798 337.595 40.0878 335.051 40.0878C332.491 40.0878 330.715 41.8318 330.715 44.5998C330.715 47.3838 332.555 49.1438 335.051 49.1438C337.227 49.1438 338.635 47.8958 339.083 46.2958ZM341.501 46.5998C341.501 48.3598 342.381 48.9998 343.933 48.9998H345.245V47.7678H344.173C343.277 47.7678 342.957 47.4638 342.957 46.5998V41.4318H345.245V40.2318H342.957V38.0238H341.501V40.2318H340.365V41.4318H341.501V46.5998ZM355.329 44.5998C355.329 41.8318 353.393 40.0878 350.897 40.0878C348.417 40.0878 346.465 41.8318 346.465 44.5998C346.465 47.3838 348.353 49.1438 350.833 49.1438C353.329 49.1438 355.329 47.3838 355.329 44.5998ZM347.953 44.5998C347.953 42.3918 349.345 41.3518 350.881 41.3518C352.385 41.3518 353.841 42.3918 353.841 44.5998C353.841 46.8238 352.353 47.8638 350.833 47.8638C349.313 47.8638 347.953 46.8238 347.953 44.5998ZM358.7 44.2318C358.7 42.1998 359.756 41.5758 361.148 41.5758H361.532V40.0718C360.14 40.0718 359.196 40.6798 358.7 41.6558V40.2318H357.244V48.9998H358.7V44.2318ZM371.206 41.3198C372.71 41.3198 373.99 42.2638 373.974 43.9758H368.438C368.598 42.2638 369.782 41.3198 371.206 41.3198ZM375.302 46.2958H373.734C373.414 47.2398 372.582 47.9118 371.27 47.9118C369.782 47.9118 368.534 46.9358 368.422 45.1598H375.43C375.462 44.8558 375.478 44.5998 375.478 44.2798C375.478 41.8798 373.814 40.0878 371.27 40.0878C368.71 40.0878 366.934 41.8318 366.934 44.5998C366.934 47.3838 368.774 49.1438 371.27 49.1438C373.446 49.1438 374.854 47.8958 375.302 46.2958ZM381.666 48.9998H383.122V40.2318H381.666V48.9998ZM382.418 38.8078C382.946 38.8078 383.378 38.3758 383.378 37.8158C383.378 37.2558 382.946 36.8238 382.418 36.8238C381.858 36.8238 381.426 37.2558 381.426 37.8158C381.426 38.3758 381.858 38.8078 382.418 38.8078ZM392.019 48.9998H393.459V43.8318C393.459 41.3198 391.907 40.0718 389.875 40.0718C388.691 40.0718 387.635 40.5678 387.059 41.4798V40.2318H385.603V48.9998H387.059V44.1518C387.059 42.2638 388.083 41.3358 389.571 41.3358C391.043 41.3358 392.019 42.2478 392.019 44.0398V48.9998ZM395.293 44.5838C395.293 47.3038 397.101 49.1438 399.453 49.1438C401.053 49.1438 402.189 48.2958 402.717 47.3518V49.1918C402.717 51.0638 401.549 52.0558 399.997 52.0558C398.557 52.0558 397.517 51.3358 397.197 50.2798H395.757C396.045 52.1518 397.693 53.3198 399.997 53.3198C402.573 53.3198 404.189 51.6078 404.189 49.1918V40.2318H402.717V41.8318C402.205 40.8878 401.053 40.0878 399.453 40.0878C397.101 40.0878 395.293 41.8478 395.293 44.5838ZM402.717 44.5998C402.717 46.6638 401.341 47.8638 399.741 47.8638C398.141 47.8638 396.781 46.6478 396.781 44.5838C396.781 42.5198 398.141 41.3518 399.741 41.3518C401.341 41.3518 402.717 42.5678 402.717 44.5998ZM408.106 44.2318C408.106 42.1998 409.162 41.5758 410.554 41.5758H410.938V40.0718C409.546 40.0718 408.602 40.6798 408.106 41.6558V40.2318H406.65V48.9998H408.106V44.2318ZM416.347 41.3198C417.851 41.3198 419.131 42.2638 419.115 43.9758H413.579C413.739 42.2638 414.923 41.3198 416.347 41.3198ZM420.443 46.2958H418.875C418.555 47.2398 417.723 47.9118 416.411 47.9118C414.923 47.9118 413.675 46.9358 413.563 45.1598H420.571C420.603 44.8558 420.619 44.5998 420.619 44.2798C420.619 41.8798 418.955 40.0878 416.411 40.0878C413.851 40.0878 412.075 41.8318 412.075 44.5998C412.075 47.3838 413.915 49.1438 416.411 49.1438C418.587 49.1438 419.995 47.8958 420.443 46.2958ZM428.845 46.6158C428.781 43.4798 423.693 44.6158 423.693 42.5358C423.693 41.8318 424.333 41.3198 425.405 41.3198C426.573 41.3198 427.245 41.9598 427.309 42.8398H428.765C428.669 41.1278 427.389 40.0878 425.453 40.0878C423.501 40.0878 422.237 41.1918 422.237 42.5358C422.237 45.7998 427.421 44.6638 427.421 46.6158C427.421 47.3358 426.781 47.9118 425.629 47.9118C424.397 47.9118 423.645 47.2718 423.565 46.4238H422.061C422.157 48.0238 423.597 49.1438 425.645 49.1438C427.581 49.1438 428.845 48.0558 428.845 46.6158ZM437.204 46.6158C437.14 43.4798 432.052 44.6158 432.052 42.5358C432.052 41.8318 432.692 41.3198 433.764 41.3198C434.932 41.3198 435.604 41.9598 435.668 42.8398H437.124C437.028 41.1278 435.748 40.0878 433.812 40.0878C431.86 40.0878 430.596 41.1918 430.596 42.5358C430.596 45.7998 435.78 44.6638 435.78 46.6158C435.78 47.3358 435.14 47.9118 433.988 47.9118C432.756 47.9118 432.004 47.2718 431.924 46.4238H430.42C430.516 48.0238 431.956 49.1438 434.004 49.1438C435.94 49.1438 437.204 48.0558 437.204 46.6158ZM447.579 44.5998C447.579 41.8318 445.643 40.0878 443.147 40.0878C440.667 40.0878 438.715 41.8318 438.715 44.5998C438.715 47.3838 440.603 49.1438 443.083 49.1438C445.579 49.1438 447.579 47.3838 447.579 44.5998ZM440.203 44.5998C440.203 42.3918 441.595 41.3518 443.131 41.3518C444.635 41.3518 446.091 42.3918 446.091 44.5998C446.091 46.8238 444.603 47.8638 443.083 47.8638C441.563 47.8638 440.203 46.8238 440.203 44.5998Z" fill="#D8413A"/>
<path d="M307.189 42.7924C307.189 51.0843 300.307 57.8351 291.782 57.8351C283.257 57.8351 276.375 51.0843 276.375 42.7924C276.375 34.5006 283.257 27.7498 291.782 27.7498C300.307 27.7498 307.189 34.5006 307.189 42.7924Z" stroke="#D8413A" stroke-width="1.5"/>
<path d="M287.624 48.84H295.656V46.616H291.336C293.192 45.192 295.48 43.144 295.48 40.584C295.48 38.616 294.296 37.064 291.64 37.064C289.512 37.064 287.672 38.28 287.592 41.112H290.232C290.232 40.008 290.712 39.368 291.528 39.368C292.36 39.368 292.744 39.912 292.744 40.76C292.744 42.728 290.104 44.76 287.624 46.808V48.84Z" fill="#D8413A"/>
<path d="M291.772 21.0569L282.444 5.2642L301.1 5.2642L291.772 21.0569Z" fill="#D8413A"/>
<path d="M574.655 45.96C574.655 41.832 568.639 43.624 568.639 40.744C568.639 39.544 569.583 38.92 570.783 38.952C572.143 38.968 572.847 39.816 572.943 40.568H574.543C574.367 38.872 572.975 37.704 570.847 37.704C568.639 37.704 567.151 38.952 567.151 40.792C567.151 44.936 573.183 43.016 573.183 46.024C573.183 47.08 572.351 47.88 570.943 47.88C569.391 47.88 568.735 46.952 568.639 46.024H567.087C567.119 47.864 568.703 49.112 570.943 49.112C573.359 49.112 574.655 47.544 574.655 45.96ZM580.526 41.32C582.03 41.32 583.31 42.264 583.294 43.976H577.758C577.918 42.264 579.102 41.32 580.526 41.32ZM584.622 46.296H583.054C582.734 47.24 581.902 47.912 580.59 47.912C579.102 47.912 577.854 46.936 577.742 45.16H584.75C584.782 44.856 584.798 44.6 584.798 44.28C584.798 41.88 583.134 40.088 580.59 40.088C578.03 40.088 576.254 41.832 576.254 44.6C576.254 47.384 578.094 49.144 580.59 49.144C582.766 49.144 584.174 47.896 584.622 46.296ZM587.04 46.6C587.04 48.36 587.92 49 589.472 49H590.784V47.768H589.712C588.816 47.768 588.496 47.464 588.496 46.6V41.432H590.784V40.232H588.496V38.024H587.04V40.232H585.904V41.432H587.04V46.6ZM600.868 44.6C600.868 41.832 598.932 40.088 596.436 40.088C593.956 40.088 592.004 41.832 592.004 44.6C592.004 47.384 593.892 49.144 596.372 49.144C598.868 49.144 600.868 47.384 600.868 44.6ZM593.492 44.6C593.492 42.392 594.884 41.352 596.42 41.352C597.924 41.352 599.38 42.392 599.38 44.6C599.38 46.824 597.892 47.864 596.372 47.864C594.852 47.864 593.492 46.824 593.492 44.6ZM604.238 44.232C604.238 42.2 605.294 41.576 606.686 41.576H607.07V40.072C605.678 40.072 604.734 40.68 604.238 41.656V40.232H602.782V49H604.238V44.232ZM616.745 41.32C618.249 41.32 619.529 42.264 619.513 43.976H613.977C614.137 42.264 615.321 41.32 616.745 41.32ZM620.841 46.296H619.273C618.953 47.24 618.121 47.912 616.809 47.912C615.321 47.912 614.073 46.936 613.961 45.16H620.969C621.001 44.856 621.017 44.6 621.017 44.28C621.017 41.88 619.353 40.088 616.809 40.088C614.249 40.088 612.473 41.832 612.473 44.6C612.473 47.384 614.313 49.144 616.809 49.144C618.985 49.144 620.393 47.896 620.841 46.296ZM628.66 41.848V40.232H627.204V53.16H628.66V47.384C629.204 48.28 630.34 49.144 631.94 49.144C634.292 49.144 636.1 47.304 636.1 44.584C636.1 41.848 634.292 40.088 631.94 40.088C630.34 40.088 629.188 40.92 628.66 41.848ZM634.612 44.584C634.612 46.648 633.252 47.864 631.636 47.864C630.052 47.864 628.66 46.664 628.66 44.6C628.66 42.568 630.052 41.352 631.636 41.352C633.252 41.352 634.612 42.52 634.612 44.584ZM639.473 44.232C639.473 42.2 640.529 41.576 641.921 41.576H642.305V40.072C640.913 40.072 639.969 40.68 639.473 41.656V40.232H638.017V49H639.473V44.232ZM652.306 44.6C652.306 41.832 650.37 40.088 647.874 40.088C645.394 40.088 643.442 41.832 643.442 44.6C643.442 47.384 645.33 49.144 647.81 49.144C650.306 49.144 652.306 47.384 652.306 44.6ZM644.93 44.6C644.93 42.392 646.322 41.352 647.858 41.352C649.362 41.352 650.818 42.392 650.818 44.6C650.818 46.824 649.33 47.864 647.81 47.864C646.29 47.864 644.93 46.824 644.93 44.6ZM653.676 44.584C653.676 47.304 655.484 49.144 657.836 49.144C659.436 49.144 660.572 48.328 661.1 47.352V49H662.572V37.16H661.1V41.8C660.492 40.792 659.228 40.088 657.852 40.088C655.484 40.088 653.676 41.848 653.676 44.584ZM661.1 44.6C661.1 46.664 659.724 47.864 658.124 47.864C656.524 47.864 655.164 46.648 655.164 44.584C655.164 42.52 656.524 41.352 658.124 41.352C659.724 41.352 661.1 42.568 661.1 44.6ZM672.808 40.232H671.352V45.048C671.352 46.936 670.344 47.864 668.84 47.864C667.368 47.864 666.392 46.952 666.392 45.176V40.232H664.952V45.368C664.952 47.88 666.536 49.128 668.552 49.128C669.72 49.128 670.792 48.616 671.352 47.704V49H672.808V40.232ZM675.587 46.6C675.587 48.36 676.467 49 678.019 49H679.331V47.768H678.259C677.363 47.768 677.043 47.464 677.043 46.6V41.432H679.331V40.232H677.043V38.024H675.587V40.232H674.451V41.432H675.587V46.6ZM689.415 44.6C689.415 41.832 687.479 40.088 684.983 40.088C682.503 40.088 680.551 41.832 680.551 44.6C680.551 47.384 682.439 49.144 684.919 49.144C687.415 49.144 689.415 47.384 689.415 44.6ZM682.039 44.6C682.039 42.392 683.431 41.352 684.967 41.352C686.471 41.352 687.927 42.392 687.927 44.6C687.927 46.824 686.439 47.864 684.919 47.864C683.399 47.864 682.039 46.824 682.039 44.6Z" fill="#A5A5A5"/>
<path d="M552.399 42.7927C552.399 51.0833 545.519 57.8333 536.995 57.8333C528.471 57.8333 521.59 51.0833 521.59 42.7927C521.59 34.502 528.471 27.752 536.995 27.752C545.519 27.752 552.399 34.502 552.399 42.7927Z" stroke="#C4C4C4" stroke-width="1.50407"/>
<path d="M532.908 40.616H535.58C535.628 39.976 535.948 39.336 536.828 39.336C537.564 39.336 538.028 39.768 538.028 40.552C538.028 41.608 537.132 41.832 536.204 41.832H535.692V44.056H536.204C537.628 44.056 538.252 44.472 538.252 45.512C538.252 46.28 537.788 46.824 536.94 46.824C535.932 46.824 535.436 46.216 535.42 45.304H532.764C532.844 47.944 534.604 49.096 537.036 49.096C539.484 49.096 540.892 47.688 540.892 45.72C540.892 44.184 540.092 43.288 538.924 42.904V42.84C539.724 42.568 540.684 41.752 540.684 40.216C540.684 38.456 539.356 37.048 536.892 37.048C534.508 37.048 533.004 38.312 532.908 40.616Z" fill="#C4C4C4"/>
<path d="M776.392 49H779.128V46.92H780.44V44.552H779.128V37.48H776.072L771.016 44.712V46.92H776.392V49ZM773.896 44.552L776.584 40.488V44.552H773.896Z" fill="#C4C4C4"/>
<path d="M791.565 42.7927C791.565 51.0833 784.685 57.8333 776.161 57.8333C767.637 57.8333 760.756 51.0833 760.756 42.7927C760.756 34.502 767.637 27.752 776.161 27.752C784.685 27.752 791.565 34.502 791.565 42.7927Z" stroke="#C4C4C4" stroke-width="1.50407"/>
<path d="M918.634 37.304V44.264H921.274C921.418 43.72 921.866 43.304 922.634 43.304C923.61 43.304 924.138 43.864 924.138 44.92C924.138 45.928 923.69 46.68 922.65 46.68C921.754 46.68 921.29 46.136 921.178 45.528H918.506C918.602 47.544 920.122 49 922.746 49C925.338 49 926.778 47.4 926.778 44.936C926.778 43.048 925.802 41.112 923.258 41.112C922.33 41.112 921.53 41.448 921.114 41.912V39.704H926.106V37.304H918.634Z" fill="#C4C4C4"/>
<path d="M938.495 42.7927C938.495 51.0833 931.614 57.8333 923.09 57.8333C914.566 57.8333 907.686 51.0833 907.686 42.7927C907.686 34.502 914.566 27.752 923.09 27.752C931.614 27.752 938.495 34.502 938.495 42.7927Z" stroke="#C4C4C4" stroke-width="1.50407"/>
<ellipse cx="16.1568" cy="42.7927" rx="16.1568" ry="15.7927" fill="#D8413A"/>
<path d="M24.1808 36.0008C23.8326 36.0115 23.5025 36.1546 23.2604 36.3995C19.9813 39.6118 16.6997 42.8083 13.417 46.0211L8.33323 41.8802C8.06005 41.6577 7.7077 41.5504 7.35349 41.5821C6.99928 41.6136 6.67261 41.7816 6.445 42.0486C6.21758 42.3159 6.10808 42.6603 6.14029 43.0065C6.17275 43.3527 6.3446 43.672 6.61778 43.8943L12.6429 48.8021C12.9002 49.0125 13.2289 49.1209 13.564 49.1058C13.899 49.0906 14.2161 48.9532 14.4526 48.7204C18.021 45.2249 21.5913 41.7501 25.1639 38.2504C25.4257 38.0033 25.5733 37.6625 25.5728 37.3067C25.5723 36.9509 25.4236 36.6106 25.1609 36.3644C24.8982 36.1181 24.5443 35.9869 24.1805 36.001L24.1808 36.0008Z" fill="white"/>
</svg>
