<svg width="1062" height="59" viewBox="0 0 1062 59" fill="none" xmlns="http://www.w3.org/2000/svg">
<path d="M46.8258 49H48.2818V37.848H46.8258V49ZM57.1793 49H58.6193V43.832C58.6193 41.32 57.0673 40.072 55.0353 40.072C53.8513 40.072 52.7953 40.568 52.2193 41.48V40.232H50.7633V49H52.2193V44.152C52.2193 42.264 53.2433 41.336 54.7313 41.336C56.2033 41.336 57.1793 42.248 57.1793 44.04V49ZM61.2696 49H62.7256V41.432H64.5656V40.232H62.7256V39.608C62.7256 38.472 63.1576 37.992 64.4696 37.992V36.776C62.2296 36.776 61.2696 37.656 61.2696 39.608V40.232H60.1336V41.432H61.2696V49ZM74.5833 44.6C74.5833 41.832 72.6473 40.088 70.1513 40.088C67.6713 40.088 65.7193 41.832 65.7193 44.6C65.7193 47.384 67.6073 49.144 70.0873 49.144C72.5833 49.144 74.5833 47.384 74.5833 44.6ZM67.2073 44.6C67.2073 42.392 68.5993 41.352 70.1353 41.352C71.6393 41.352 73.0953 42.392 73.0953 44.6C73.0953 46.824 71.6073 47.864 70.0873 47.864C68.5673 47.864 67.2073 46.824 67.2073 44.6ZM77.9536 44.232C77.9536 42.2 79.0096 41.576 80.4016 41.576H80.7856V40.072C79.3936 40.072 78.4496 40.68 77.9536 41.656V40.232H76.4976V49H77.9536V44.232ZM95.1224 49H96.5624V43.832C96.5624 41.32 95.0104 40.072 93.0104 40.072C91.6664 40.072 90.4184 40.76 89.9064 42.024C89.3304 40.712 88.1304 40.072 86.6904 40.072C85.5384 40.072 84.4984 40.568 83.9224 41.496V40.232H82.4664V49H83.9224V44.168C83.9224 42.28 84.9304 41.336 86.4024 41.336C87.8424 41.336 88.8024 42.248 88.8024 44.04V49H90.2424V44.168C90.2424 42.28 91.2504 41.336 92.7224 41.336C94.1624 41.336 95.1224 42.248 95.1224 44.04V49ZM98.4068 44.584C98.4068 47.304 100.215 49.144 102.551 49.144C104.167 49.144 105.303 48.312 105.831 47.368V49H107.303V40.232H105.831V41.832C105.319 40.92 104.199 40.088 102.567 40.088C100.215 40.088 98.4068 41.848 98.4068 44.584ZM105.831 44.6C105.831 46.664 104.455 47.864 102.855 47.864C101.255 47.864 99.8948 46.648 99.8948 44.584C99.8948 42.52 101.255 41.352 102.855 41.352C104.455 41.352 105.831 42.568 105.831 44.6ZM109.219 44.6C109.219 47.176 110.755 48.888 112.963 49.112V50.824H113.763C114.451 50.824 114.787 51.016 114.787 51.512C114.787 52.024 114.451 52.216 113.763 52.216H112.211V53.16H114.051C115.187 53.16 116.003 52.52 116.003 51.512C116.003 50.456 115.171 49.912 113.939 49.928V49.128C115.859 48.968 117.123 47.8 117.539 46.184H115.971C115.651 47.288 114.787 47.912 113.491 47.912C111.891 47.912 110.707 46.776 110.707 44.6C110.707 42.456 111.891 41.32 113.491 41.32C114.787 41.32 115.667 41.992 115.971 43.048H117.539C117.091 41.208 115.667 40.088 113.491 40.088C110.995 40.088 109.219 41.848 109.219 44.6ZM127.802 44.6C127.802 41.832 125.866 40.088 123.37 40.088C120.89 40.088 118.938 41.832 118.938 44.6C118.938 47.384 120.826 49.144 123.306 49.144C125.802 49.144 127.802 47.384 127.802 44.6ZM120.426 44.6C120.426 42.392 121.818 41.352 123.354 41.352C124.858 41.352 126.314 42.392 126.314 44.6C126.314 46.824 124.826 47.864 123.306 47.864C121.786 47.864 120.426 46.824 120.426 44.6ZM121.034 39.176H121.882C121.946 38.696 122.218 38.472 122.57 38.472C123.21 38.472 123.53 39.208 124.394 39.208C125.226 39.208 125.866 38.632 125.994 37.544H125.162C125.098 38.008 124.81 38.232 124.458 38.232C123.802 38.232 123.482 37.496 122.634 37.496C121.802 37.496 121.194 38.072 121.034 39.176ZM133.444 41.32C134.948 41.32 136.228 42.264 136.212 43.976H130.676C130.836 42.264 132.02 41.32 133.444 41.32ZM137.54 46.296H135.972C135.652 47.24 134.82 47.912 133.508 47.912C132.02 47.912 130.772 46.936 130.66 45.16H137.668C137.7 44.856 137.716 44.6 137.716 44.28C137.716 41.88 136.052 40.088 133.508 40.088C130.948 40.088 129.172 41.832 129.172 44.6C129.172 47.384 131.012 49.144 133.508 49.144C135.684 49.144 137.092 47.896 137.54 46.296ZM145.942 46.616C145.878 43.48 140.79 44.616 140.79 42.536C140.79 41.832 141.43 41.32 142.502 41.32C143.67 41.32 144.342 41.96 144.406 42.84H145.862C145.766 41.128 144.486 40.088 142.55 40.088C140.598 40.088 139.334 41.192 139.334 42.536C139.334 45.8 144.518 44.664 144.518 46.616C144.518 47.336 143.878 47.912 142.726 47.912C141.494 47.912 140.742 47.272 140.662 46.424H139.158C139.254 48.024 140.694 49.144 142.742 49.144C144.678 49.144 145.942 48.056 145.942 46.616ZM157.319 37.72C154.183 37.72 151.719 40.072 151.719 43.416C151.719 46.76 154.183 49.096 157.319 49.096C160.343 49.096 162.535 46.872 162.791 44.104V42.984H156.791V44.168H161.239C161.015 46.376 159.511 47.784 157.319 47.784C154.967 47.784 153.207 46.088 153.207 43.416C153.207 40.728 154.967 39.032 157.319 39.032C158.887 39.032 160.103 39.784 160.711 41.08H162.455C161.623 38.936 159.671 37.72 157.319 37.72ZM168.444 41.32C169.948 41.32 171.228 42.264 171.212 43.976H165.676C165.836 42.264 167.02 41.32 168.444 41.32ZM172.54 46.296H170.972C170.652 47.24 169.82 47.912 168.508 47.912C167.02 47.912 165.772 46.936 165.66 45.16H172.668C172.7 44.856 172.716 44.6 172.716 44.28C172.716 41.88 171.052 40.088 168.508 40.088C165.948 40.088 164.172 41.832 164.172 44.6C164.172 47.384 166.012 49.144 168.508 49.144C170.684 49.144 172.092 47.896 172.54 46.296ZM176.094 44.232C176.094 42.2 177.15 41.576 178.542 41.576H178.926V40.072C177.534 40.072 176.59 40.68 176.094 41.656V40.232H174.638V49H176.094V44.232ZM180.063 44.584C180.063 47.304 181.871 49.144 184.207 49.144C185.823 49.144 186.959 48.312 187.487 47.368V49H188.959V40.232H187.487V41.832C186.975 40.92 185.855 40.088 184.223 40.088C181.871 40.088 180.063 41.848 180.063 44.584ZM187.487 44.6C187.487 46.664 186.111 47.864 184.511 47.864C182.911 47.864 181.551 46.648 181.551 44.584C181.551 42.52 182.911 41.352 184.511 41.352C186.111 41.352 187.487 42.568 187.487 44.6ZM191.42 49H192.876V40.232H191.42V49ZM192.172 38.808C192.7 38.808 193.132 38.376 193.132 37.816C193.132 37.256 192.7 36.824 192.172 36.824C191.612 36.824 191.18 37.256 191.18 37.816C191.18 38.376 191.612 38.808 192.172 38.808ZM201.661 46.616C201.597 43.48 196.509 44.616 196.509 42.536C196.509 41.832 197.149 41.32 198.221 41.32C199.389 41.32 200.061 41.96 200.125 42.84H201.581C201.485 41.128 200.205 40.088 198.269 40.088C196.317 40.088 195.053 41.192 195.053 42.536C195.053 45.8 200.237 44.664 200.237 46.616C200.237 47.336 199.597 47.912 198.445 47.912C197.213 47.912 196.461 47.272 196.381 46.424H194.877C194.973 48.024 196.413 49.144 198.461 49.144C200.397 49.144 201.661 48.056 201.661 46.616Z" fill="#A5A5A5"/>
<path d="M808.963 43.144V39.048H811.107C812.771 39.048 813.475 39.816 813.475 41.112C813.475 42.36 812.771 43.144 811.107 43.144H808.963ZM814.963 41.112C814.963 39.288 813.731 37.848 811.107 37.848H807.507V49H808.963V44.344H811.107C813.875 44.344 814.963 42.808 814.963 41.112ZM820.245 37.848H816.773V49H820.245C823.909 49 826.165 46.904 826.165 43.448C826.165 39.992 823.909 37.848 820.245 37.848ZM818.229 47.8V39.032H820.245C823.157 39.032 824.677 40.728 824.677 43.448C824.677 46.168 823.157 47.8 820.245 47.8H818.229ZM832.261 47.464L828.757 37.848H827.205L831.413 49H833.093L837.301 37.848H835.765L832.261 47.464Z" fill="#A5A5A5"/>
<path d="M953.219 43.416C953.219 46.76 955.667 49.096 958.787 49.096C961.203 49.096 963.123 47.896 963.955 45.752H962.211C961.603 47.08 960.419 47.832 958.787 47.832C956.451 47.832 954.707 46.136 954.707 43.416C954.707 40.68 956.451 38.984 958.787 38.984C960.419 38.984 961.603 39.736 962.211 41.08H963.955C963.123 38.92 961.203 37.704 958.787 37.704C955.667 37.704 953.219 40.072 953.219 43.416ZM974.443 44.6C974.443 41.832 972.507 40.088 970.011 40.088C967.531 40.088 965.579 41.832 965.579 44.6C965.579 47.384 967.467 49.144 969.947 49.144C972.443 49.144 974.443 47.384 974.443 44.6ZM967.067 44.6C967.067 42.392 968.459 41.352 969.995 41.352C971.499 41.352 972.955 42.392 972.955 44.6C972.955 46.824 971.467 47.864 969.947 47.864C968.427 47.864 967.067 46.824 967.067 44.6ZM982.773 49H984.213V43.832C984.213 41.32 982.661 40.072 980.629 40.072C979.445 40.072 978.389 40.568 977.813 41.48V40.232H976.357V49H977.813V44.152C977.813 42.264 978.837 41.336 980.325 41.336C981.797 41.336 982.773 42.248 982.773 44.04V49ZM986.863 49H988.319V41.432H990.159V40.232H988.319V39.608C988.319 38.472 988.751 37.992 990.063 37.992V36.776C987.823 36.776 986.863 37.656 986.863 39.608V40.232H985.727V41.432H986.863V49ZM991.857 49H993.313V40.232H991.857V49ZM992.609 38.808C993.137 38.808 993.569 38.376 993.569 37.816C993.569 37.256 993.137 36.824 992.609 36.824C992.049 36.824 991.617 37.256 991.617 37.816C991.617 38.376 992.049 38.808 992.609 38.808ZM997.251 44.232C997.251 42.2 998.307 41.576 999.699 41.576H1000.08V40.072C998.691 40.072 997.747 40.68 997.251 41.656V40.232H995.795V49H997.251V44.232ZM1014.42 49H1015.86V43.832C1015.86 41.32 1014.31 40.072 1012.31 40.072C1010.96 40.072 1009.72 40.76 1009.2 42.024C1008.63 40.712 1007.43 40.072 1005.99 40.072C1004.84 40.072 1003.8 40.568 1003.22 41.496V40.232H1001.76V49H1003.22V44.168C1003.22 42.28 1004.23 41.336 1005.7 41.336C1007.14 41.336 1008.1 42.248 1008.1 44.04V49H1009.54V44.168C1009.54 42.28 1010.55 41.336 1012.02 41.336C1013.46 41.336 1014.42 42.248 1014.42 44.04V49ZM1017.7 44.584C1017.7 47.304 1019.51 49.144 1021.85 49.144C1023.46 49.144 1024.6 48.312 1025.13 47.368V49H1026.6V40.232H1025.13V41.832C1024.62 40.92 1023.5 40.088 1021.86 40.088C1019.51 40.088 1017.7 41.848 1017.7 44.584ZM1025.13 44.6C1025.13 46.664 1023.75 47.864 1022.15 47.864C1020.55 47.864 1019.19 46.648 1019.19 44.584C1019.19 42.52 1020.55 41.352 1022.15 41.352C1023.75 41.352 1025.13 42.568 1025.13 44.6ZM1028.52 44.6C1028.52 47.176 1030.05 48.888 1032.26 49.112V50.824H1033.06C1033.75 50.824 1034.08 51.016 1034.08 51.512C1034.08 52.024 1033.75 52.216 1033.06 52.216H1031.51V53.16H1033.35C1034.48 53.16 1035.3 52.52 1035.3 51.512C1035.3 50.456 1034.47 49.912 1033.24 49.928V49.128C1035.16 48.968 1036.42 47.8 1036.84 46.184H1035.27C1034.95 47.288 1034.08 47.912 1032.79 47.912C1031.19 47.912 1030 46.776 1030 44.6C1030 42.456 1031.19 41.32 1032.79 41.32C1034.08 41.32 1034.96 41.992 1035.27 43.048H1036.84C1036.39 41.208 1034.96 40.088 1032.79 40.088C1030.29 40.088 1028.52 41.848 1028.52 44.6ZM1038.23 44.584C1038.23 47.304 1040.04 49.144 1042.38 49.144C1043.99 49.144 1045.13 48.312 1045.66 47.368V49H1047.13V40.232H1045.66V41.832C1045.15 40.92 1044.03 40.088 1042.39 40.088C1040.04 40.088 1038.23 41.848 1038.23 44.584ZM1045.66 44.6C1045.66 46.664 1044.28 47.864 1042.68 47.864C1041.08 47.864 1039.72 46.648 1039.72 44.584C1039.72 42.52 1041.08 41.352 1042.68 41.352C1044.28 41.352 1045.66 42.568 1045.66 44.6ZM1040.62 39.288H1041.47C1041.53 38.808 1041.8 38.584 1042.15 38.584C1042.79 38.584 1043.11 39.32 1043.98 39.32C1044.81 39.32 1045.45 38.744 1045.58 37.656H1044.75C1044.68 38.12 1044.39 38.344 1044.04 38.344C1043.39 38.344 1043.07 37.608 1042.22 37.608C1041.39 37.608 1040.78 38.184 1040.62 39.288ZM1057.91 44.6C1057.91 41.832 1055.98 40.088 1053.48 40.088C1051 40.088 1049.05 41.832 1049.05 44.6C1049.05 47.384 1050.94 49.144 1053.42 49.144C1055.91 49.144 1057.91 47.384 1057.91 44.6ZM1050.54 44.6C1050.54 42.392 1051.93 41.352 1053.46 41.352C1054.97 41.352 1056.42 42.392 1056.42 44.6C1056.42 46.824 1054.94 47.864 1053.42 47.864C1051.9 47.864 1050.54 46.824 1050.54 44.6Z" fill="#D8413A"/>
<line x1="218.875" y1="41.872" x2="262.742" y2="41.872" stroke="#D8413A" stroke-width="2.2561"/>
<line x1="464.094" y1="41.872" x2="507.961" y2="41.872" stroke="#D8413A" stroke-width="2.2561"/>
<line x1="703.953" y1="41.872" x2="747.82" y2="41.872" stroke="#D8413A" stroke-width="2.2561"/>
<line x1="850.609" y1="41.872" x2="894.476" y2="41.872" stroke="#D8413A" stroke-width="2.2561"/>
<path d="M329.113 45.9598C329.113 41.8318 323.097 43.6238 323.097 40.7438C323.097 39.5438 324.041 38.9198 325.241 38.9518C326.601 38.9678 327.305 39.8158 327.401 40.5678H329.001C328.825 38.8718 327.433 37.7038 325.305 37.7038C323.097 37.7038 321.609 38.9518 321.609 40.7918C321.609 44.9358 327.641 43.0158 327.641 46.0238C327.641 47.0798 326.809 47.8798 325.401 47.8798C323.849 47.8798 323.193 46.9518 323.097 46.0238H321.545C321.577 47.8638 323.161 49.1118 325.401 49.1118C327.817 49.1118 329.113 47.5438 329.113 45.9598ZM334.983 41.3198C336.487 41.3198 337.767 42.2638 337.751 43.9758H332.215C332.375 42.2638 333.559 41.3198 334.983 41.3198ZM339.079 46.2958H337.511C337.191 47.2398 336.359 47.9118 335.047 47.9118C333.559 47.9118 332.311 46.9358 332.199 45.1598H339.207C339.239 44.8558 339.255 44.5998 339.255 44.2798C339.255 41.8798 337.591 40.0878 335.047 40.0878C332.487 40.0878 330.711 41.8318 330.711 44.5998C330.711 47.3838 332.551 49.1438 335.047 49.1438C337.223 49.1438 338.631 47.8958 339.079 46.2958ZM341.497 46.5998C341.497 48.3598 342.377 48.9998 343.929 48.9998H345.241V47.7678H344.169C343.273 47.7678 342.953 47.4638 342.953 46.5998V41.4318H345.241V40.2318H342.953V38.0238H341.497V40.2318H340.361V41.4318H341.497V46.5998ZM355.325 44.5998C355.325 41.8318 353.389 40.0878 350.893 40.0878C348.413 40.0878 346.461 41.8318 346.461 44.5998C346.461 47.3838 348.349 49.1438 350.829 49.1438C353.325 49.1438 355.325 47.3838 355.325 44.5998ZM347.949 44.5998C347.949 42.3918 349.341 41.3518 350.877 41.3518C352.381 41.3518 353.837 42.3918 353.837 44.5998C353.837 46.8238 352.349 47.8638 350.829 47.8638C349.309 47.8638 347.949 46.8238 347.949 44.5998ZM358.696 44.2318C358.696 42.1998 359.752 41.5758 361.144 41.5758H361.528V40.0718C360.136 40.0718 359.192 40.6798 358.696 41.6558V40.2318H357.24V48.9998H358.696V44.2318ZM371.202 41.3198C372.706 41.3198 373.986 42.2638 373.97 43.9758H368.434C368.594 42.2638 369.778 41.3198 371.202 41.3198ZM375.298 46.2958H373.73C373.41 47.2398 372.578 47.9118 371.266 47.9118C369.778 47.9118 368.53 46.9358 368.418 45.1598H375.426C375.458 44.8558 375.474 44.5998 375.474 44.2798C375.474 41.8798 373.81 40.0878 371.266 40.0878C368.706 40.0878 366.93 41.8318 366.93 44.5998C366.93 47.3838 368.77 49.1438 371.266 49.1438C373.442 49.1438 374.85 47.8958 375.298 46.2958ZM381.662 48.9998H383.118V40.2318H381.662V48.9998ZM382.414 38.8078C382.942 38.8078 383.374 38.3758 383.374 37.8158C383.374 37.2558 382.942 36.8238 382.414 36.8238C381.854 36.8238 381.422 37.2558 381.422 37.8158C381.422 38.3758 381.854 38.8078 382.414 38.8078ZM392.015 48.9998H393.455V43.8318C393.455 41.3198 391.903 40.0718 389.871 40.0718C388.687 40.0718 387.631 40.5678 387.055 41.4798V40.2318H385.599V48.9998H387.055V44.1518C387.055 42.2638 388.079 41.3358 389.567 41.3358C391.039 41.3358 392.015 42.2478 392.015 44.0398V48.9998ZM395.29 44.5838C395.29 47.3038 397.098 49.1438 399.45 49.1438C401.05 49.1438 402.186 48.2958 402.714 47.3518V49.1918C402.714 51.0638 401.546 52.0558 399.994 52.0558C398.554 52.0558 397.514 51.3358 397.194 50.2798H395.754C396.042 52.1518 397.69 53.3198 399.994 53.3198C402.57 53.3198 404.186 51.6078 404.186 49.1918V40.2318H402.714V41.8318C402.202 40.8878 401.05 40.0878 399.45 40.0878C397.098 40.0878 395.29 41.8478 395.29 44.5838ZM402.714 44.5998C402.714 46.6638 401.338 47.8638 399.738 47.8638C398.138 47.8638 396.778 46.6478 396.778 44.5838C396.778 42.5198 398.138 41.3518 399.738 41.3518C401.338 41.3518 402.714 42.5678 402.714 44.5998ZM408.102 44.2318C408.102 42.1998 409.158 41.5758 410.55 41.5758H410.934V40.0718C409.542 40.0718 408.598 40.6798 408.102 41.6558V40.2318H406.646V48.9998H408.102V44.2318ZM416.343 41.3198C417.847 41.3198 419.127 42.2638 419.111 43.9758H413.575C413.735 42.2638 414.919 41.3198 416.343 41.3198ZM420.439 46.2958H418.871C418.551 47.2398 417.719 47.9118 416.407 47.9118C414.919 47.9118 413.671 46.9358 413.559 45.1598H420.567C420.599 44.8558 420.615 44.5998 420.615 44.2798C420.615 41.8798 418.951 40.0878 416.407 40.0878C413.847 40.0878 412.071 41.8318 412.071 44.5998C412.071 47.3838 413.911 49.1438 416.407 49.1438C418.583 49.1438 419.991 47.8958 420.439 46.2958ZM428.841 46.6158C428.777 43.4798 423.689 44.6158 423.689 42.5358C423.689 41.8318 424.329 41.3198 425.401 41.3198C426.569 41.3198 427.241 41.9598 427.305 42.8398H428.761C428.665 41.1278 427.385 40.0878 425.449 40.0878C423.497 40.0878 422.233 41.1918 422.233 42.5358C422.233 45.7998 427.417 44.6638 427.417 46.6158C427.417 47.3358 426.777 47.9118 425.625 47.9118C424.393 47.9118 423.641 47.2718 423.561 46.4238H422.057C422.153 48.0238 423.593 49.1438 425.641 49.1438C427.577 49.1438 428.841 48.0558 428.841 46.6158ZM437.2 46.6158C437.136 43.4798 432.048 44.6158 432.048 42.5358C432.048 41.8318 432.688 41.3198 433.76 41.3198C434.928 41.3198 435.6 41.9598 435.664 42.8398H437.12C437.024 41.1278 435.744 40.0878 433.808 40.0878C431.856 40.0878 430.592 41.1918 430.592 42.5358C430.592 45.7998 435.776 44.6638 435.776 46.6158C435.776 47.3358 435.136 47.9118 433.984 47.9118C432.752 47.9118 432 47.2718 431.92 46.4238H430.416C430.512 48.0238 431.952 49.1438 434 49.1438C435.936 49.1438 437.2 48.0558 437.2 46.6158ZM447.575 44.5998C447.575 41.8318 445.639 40.0878 443.143 40.0878C440.663 40.0878 438.711 41.8318 438.711 44.5998C438.711 47.3838 440.599 49.1438 443.079 49.1438C445.575 49.1438 447.575 47.3838 447.575 44.5998ZM440.199 44.5998C440.199 42.3918 441.591 41.3518 443.127 41.3518C444.631 41.3518 446.087 42.3918 446.087 44.5998C446.087 46.8238 444.599 47.8638 443.079 47.8638C441.559 47.8638 440.199 46.8238 440.199 44.5998Z" fill="#A5A5A5"/>
<ellipse cx="291.782" cy="42.7924" rx="16.1568" ry="15.7927" fill="#D8413A"/>
<path d="M300.233 36.0008C299.885 36.0115 299.555 36.1546 299.313 36.3995C296.034 39.6118 292.752 42.8083 289.47 46.0211L284.386 41.8802C284.113 41.6577 283.76 41.5504 283.406 41.5821C283.052 41.6136 282.725 41.7816 282.498 42.0486C282.27 42.3159 282.161 42.6603 282.193 43.0065C282.225 43.3527 282.397 43.672 282.671 43.8943L288.696 48.8021C288.953 49.0125 289.282 49.1209 289.617 49.1058C289.952 49.0906 290.269 48.9532 290.505 48.7204C294.074 45.2249 297.644 41.7501 301.217 38.2504C301.478 38.0033 301.626 37.6625 301.626 37.3067C301.625 36.9509 301.476 36.6106 301.214 36.3644C300.951 36.1181 300.597 35.9869 300.233 36.001L300.233 36.0008Z" fill="white"/>
<path d="M922.776 21.0569L913.448 5.2642L932.104 5.2642L922.776 21.0569Z" fill="#D8413A"/>
<path d="M574.657 45.96C574.657 41.832 568.641 43.624 568.641 40.744C568.641 39.544 569.585 38.92 570.785 38.952C572.145 38.968 572.849 39.816 572.945 40.568H574.545C574.369 38.872 572.977 37.704 570.849 37.704C568.641 37.704 567.153 38.952 567.153 40.792C567.153 44.936 573.185 43.016 573.185 46.024C573.185 47.08 572.353 47.88 570.945 47.88C569.393 47.88 568.737 46.952 568.641 46.024H567.089C567.121 47.864 568.705 49.112 570.945 49.112C573.361 49.112 574.657 47.544 574.657 45.96ZM580.528 41.32C582.032 41.32 583.312 42.264 583.296 43.976H577.76C577.92 42.264 579.104 41.32 580.528 41.32ZM584.624 46.296H583.056C582.736 47.24 581.904 47.912 580.592 47.912C579.104 47.912 577.856 46.936 577.744 45.16H584.752C584.784 44.856 584.8 44.6 584.8 44.28C584.8 41.88 583.136 40.088 580.592 40.088C578.032 40.088 576.256 41.832 576.256 44.6C576.256 47.384 578.096 49.144 580.592 49.144C582.768 49.144 584.176 47.896 584.624 46.296ZM587.042 46.6C587.042 48.36 587.922 49 589.474 49H590.786V47.768H589.714C588.818 47.768 588.498 47.464 588.498 46.6V41.432H590.786V40.232H588.498V38.024H587.042V40.232H585.906V41.432H587.042V46.6ZM600.87 44.6C600.87 41.832 598.934 40.088 596.438 40.088C593.958 40.088 592.006 41.832 592.006 44.6C592.006 47.384 593.894 49.144 596.374 49.144C598.87 49.144 600.87 47.384 600.87 44.6ZM593.494 44.6C593.494 42.392 594.886 41.352 596.422 41.352C597.926 41.352 599.382 42.392 599.382 44.6C599.382 46.824 597.894 47.864 596.374 47.864C594.854 47.864 593.494 46.824 593.494 44.6ZM604.24 44.232C604.24 42.2 605.296 41.576 606.688 41.576H607.072V40.072C605.68 40.072 604.736 40.68 604.24 41.656V40.232H602.784V49H604.24V44.232ZM616.747 41.32C618.251 41.32 619.531 42.264 619.515 43.976H613.979C614.139 42.264 615.323 41.32 616.747 41.32ZM620.843 46.296H619.275C618.955 47.24 618.123 47.912 616.811 47.912C615.323 47.912 614.075 46.936 613.963 45.16H620.971C621.003 44.856 621.019 44.6 621.019 44.28C621.019 41.88 619.355 40.088 616.811 40.088C614.251 40.088 612.475 41.832 612.475 44.6C612.475 47.384 614.315 49.144 616.811 49.144C618.987 49.144 620.395 47.896 620.843 46.296ZM628.662 41.848V40.232H627.206V53.16H628.662V47.384C629.206 48.28 630.342 49.144 631.942 49.144C634.294 49.144 636.102 47.304 636.102 44.584C636.102 41.848 634.294 40.088 631.942 40.088C630.342 40.088 629.19 40.92 628.662 41.848ZM634.614 44.584C634.614 46.648 633.254 47.864 631.638 47.864C630.054 47.864 628.662 46.664 628.662 44.6C628.662 42.568 630.054 41.352 631.638 41.352C633.254 41.352 634.614 42.52 634.614 44.584ZM639.475 44.232C639.475 42.2 640.531 41.576 641.923 41.576H642.307V40.072C640.915 40.072 639.971 40.68 639.475 41.656V40.232H638.019V49H639.475V44.232ZM652.307 44.6C652.307 41.832 650.371 40.088 647.875 40.088C645.395 40.088 643.443 41.832 643.443 44.6C643.443 47.384 645.331 49.144 647.811 49.144C650.307 49.144 652.307 47.384 652.307 44.6ZM644.931 44.6C644.931 42.392 646.323 41.352 647.859 41.352C649.363 41.352 650.819 42.392 650.819 44.6C650.819 46.824 649.331 47.864 647.811 47.864C646.291 47.864 644.931 46.824 644.931 44.6ZM653.678 44.584C653.678 47.304 655.486 49.144 657.838 49.144C659.438 49.144 660.574 48.328 661.102 47.352V49H662.574V37.16H661.102V41.8C660.494 40.792 659.23 40.088 657.854 40.088C655.486 40.088 653.678 41.848 653.678 44.584ZM661.102 44.6C661.102 46.664 659.726 47.864 658.126 47.864C656.526 47.864 655.166 46.648 655.166 44.584C655.166 42.52 656.526 41.352 658.126 41.352C659.726 41.352 661.102 42.568 661.102 44.6ZM672.81 40.232H671.354V45.048C671.354 46.936 670.346 47.864 668.842 47.864C667.37 47.864 666.394 46.952 666.394 45.176V40.232H664.954V45.368C664.954 47.88 666.538 49.128 668.554 49.128C669.722 49.128 670.794 48.616 671.354 47.704V49H672.81V40.232ZM675.589 46.6C675.589 48.36 676.469 49 678.021 49H679.333V47.768H678.261C677.365 47.768 677.045 47.464 677.045 46.6V41.432H679.333V40.232H677.045V38.024H675.589V40.232H674.453V41.432H675.589V46.6ZM689.417 44.6C689.417 41.832 687.481 40.088 684.985 40.088C682.505 40.088 680.553 41.832 680.553 44.6C680.553 47.384 682.441 49.144 684.921 49.144C687.417 49.144 689.417 47.384 689.417 44.6ZM682.041 44.6C682.041 42.392 683.433 41.352 684.969 41.352C686.473 41.352 687.929 42.392 687.929 44.6C687.929 46.824 686.441 47.864 684.921 47.864C683.401 47.864 682.041 46.824 682.041 44.6Z" fill="#A5A5A5"/>
<ellipse cx="536.993" cy="42.7927" rx="16.1568" ry="15.7927" fill="#D8413A"/>
<path d="M545.046 36.0008C544.698 36.0115 544.368 36.1546 544.126 36.3995C540.847 39.6118 537.565 42.8083 534.282 46.0211L529.198 41.8802C528.925 41.6577 528.573 41.5504 528.219 41.5821C527.865 41.6136 527.538 41.7816 527.31 42.0486C527.083 42.3159 526.973 42.6603 527.006 43.0065C527.038 43.3527 527.21 43.672 527.483 43.8943L533.508 48.8021C533.765 49.0125 534.094 49.1209 534.429 49.1058C534.764 49.0906 535.081 48.9532 535.318 48.7204C538.886 45.2249 542.457 41.7501 546.029 38.2504C546.291 38.0033 546.438 37.6625 546.438 37.3067C546.438 36.9509 546.289 36.6106 546.026 36.3644C545.763 36.1181 545.41 35.9869 545.046 36.001L545.046 36.0008Z" fill="white"/>
<ellipse cx="776.165" cy="42.7927" rx="16.1568" ry="15.7927" fill="#D8413A"/>
<path d="M784.046 36.0008C783.698 36.0115 783.368 36.1546 783.126 36.3995C779.847 39.6118 776.565 42.8083 773.282 46.0211L768.198 41.8802C767.925 41.6577 767.573 41.5504 767.219 41.5821C766.865 41.6136 766.538 41.7816 766.31 42.0486C766.083 42.3159 765.973 42.6603 766.006 43.0065C766.038 43.3527 766.21 43.672 766.483 43.8943L772.508 48.8021C772.765 49.0125 773.094 49.1209 773.429 49.1058C773.764 49.0906 774.081 48.9532 774.318 48.7204C777.886 45.2249 781.457 41.7501 785.029 38.2504C785.291 38.0033 785.438 37.6625 785.438 37.3067C785.438 36.9509 785.289 36.6106 785.026 36.3644C784.763 36.1181 784.41 35.9869 784.046 36.001L784.046 36.0008Z" fill="white"/>
<path d="M918.636 37.304V44.264H921.276C921.42 43.72 921.868 43.304 922.636 43.304C923.612 43.304 924.14 43.864 924.14 44.92C924.14 45.928 923.692 46.68 922.652 46.68C921.756 46.68 921.292 46.136 921.18 45.528H918.508C918.604 47.544 920.124 49 922.748 49C925.34 49 926.78 47.4 926.78 44.936C926.78 43.048 925.804 41.112 923.26 41.112C922.332 41.112 921.532 41.448 921.116 41.912V39.704H926.108V37.304H918.636Z" fill="#D8413A"/>
<path d="M938.499 42.7927C938.499 51.0833 931.618 57.8333 923.094 57.8333C914.57 57.8333 907.69 51.0833 907.69 42.7927C907.69 34.502 914.57 27.752 923.094 27.752C931.618 27.752 938.499 34.502 938.499 42.7927Z" stroke="#D8413A" stroke-width="1.50407"/>
<ellipse cx="16.1568" cy="42.7927" rx="16.1568" ry="15.7927" fill="#D8413A"/>
<path d="M24.1788 36.0008C23.8307 36.0115 23.5005 36.1546 23.2584 36.3995C19.9793 39.6118 16.6977 42.8083 13.415 46.0211L8.33127 41.8802C8.05809 41.6577 7.70575 41.5504 7.35153 41.5821C6.99733 41.6136 6.67066 41.7816 6.44304 42.0486C6.21563 42.3159 6.10612 42.6603 6.13834 43.0065C6.1708 43.3527 6.34264 43.672 6.61582 43.8943L12.6409 48.8021C12.8982 49.0125 13.227 49.1209 13.562 49.1058C13.8971 49.0906 14.2142 48.9532 14.4507 48.7204C18.0191 45.2249 21.5894 41.7501 25.162 38.2504C25.4237 38.0033 25.5713 37.6625 25.5708 37.3067C25.5704 36.9509 25.4216 36.6106 25.159 36.3644C24.8963 36.1181 24.5423 35.9869 24.1786 36.001L24.1788 36.0008Z" fill="white"/>
</svg>
