<svg width="1062" height="59" viewBox="0 0 1062 59" fill="none" xmlns="http://www.w3.org/2000/svg">
<path d="M46.8297 49H48.2857V37.848H46.8297V49ZM57.1832 49H58.6232V43.832C58.6232 41.32 57.0712 40.072 55.0392 40.072C53.8552 40.072 52.7992 40.568 52.2232 41.48V40.232H50.7672V49H52.2232V44.152C52.2232 42.264 53.2472 41.336 54.7352 41.336C56.2072 41.336 57.1832 42.248 57.1832 44.04V49ZM61.2735 49H62.7295V41.432H64.5695V40.232H62.7295V39.608C62.7295 38.472 63.1615 37.992 64.4735 37.992V36.776C62.2335 36.776 61.2735 37.656 61.2735 39.608V40.232H60.1375V41.432H61.2735V49ZM74.5872 44.6C74.5872 41.832 72.6512 40.088 70.1552 40.088C67.6752 40.088 65.7232 41.832 65.7232 44.6C65.7232 47.384 67.6112 49.144 70.0912 49.144C72.5872 49.144 74.5872 47.384 74.5872 44.6ZM67.2112 44.6C67.2112 42.392 68.6032 41.352 70.1392 41.352C71.6432 41.352 73.0992 42.392 73.0992 44.6C73.0992 46.824 71.6112 47.864 70.0912 47.864C68.5712 47.864 67.2112 46.824 67.2112 44.6ZM77.9575 44.232C77.9575 42.2 79.0135 41.576 80.4055 41.576H80.7895V40.072C79.3975 40.072 78.4535 40.68 77.9575 41.656V40.232H76.5015V49H77.9575V44.232ZM95.1263 49H96.5663V43.832C96.5663 41.32 95.0143 40.072 93.0143 40.072C91.6703 40.072 90.4223 40.76 89.9103 42.024C89.3343 40.712 88.1343 40.072 86.6943 40.072C85.5423 40.072 84.5023 40.568 83.9263 41.496V40.232H82.4703V49H83.9263V44.168C83.9263 42.28 84.9343 41.336 86.4063 41.336C87.8463 41.336 88.8063 42.248 88.8063 44.04V49H90.2463V44.168C90.2463 42.28 91.2543 41.336 92.7263 41.336C94.1663 41.336 95.1263 42.248 95.1263 44.04V49ZM98.4107 44.584C98.4107 47.304 100.219 49.144 102.555 49.144C104.171 49.144 105.307 48.312 105.835 47.368V49H107.307V40.232H105.835V41.832C105.323 40.92 104.203 40.088 102.571 40.088C100.219 40.088 98.4107 41.848 98.4107 44.584ZM105.835 44.6C105.835 46.664 104.459 47.864 102.859 47.864C101.259 47.864 99.8987 46.648 99.8987 44.584C99.8987 42.52 101.259 41.352 102.859 41.352C104.459 41.352 105.835 42.568 105.835 44.6ZM109.223 44.6C109.223 47.176 110.759 48.888 112.967 49.112V50.824H113.767C114.455 50.824 114.791 51.016 114.791 51.512C114.791 52.024 114.455 52.216 113.767 52.216H112.215V53.16H114.055C115.191 53.16 116.007 52.52 116.007 51.512C116.007 50.456 115.175 49.912 113.943 49.928V49.128C115.863 48.968 117.127 47.8 117.543 46.184H115.975C115.655 47.288 114.791 47.912 113.495 47.912C111.895 47.912 110.711 46.776 110.711 44.6C110.711 42.456 111.895 41.32 113.495 41.32C114.791 41.32 115.671 41.992 115.975 43.048H117.543C117.095 41.208 115.671 40.088 113.495 40.088C110.999 40.088 109.223 41.848 109.223 44.6ZM127.806 44.6C127.806 41.832 125.87 40.088 123.374 40.088C120.894 40.088 118.942 41.832 118.942 44.6C118.942 47.384 120.83 49.144 123.31 49.144C125.806 49.144 127.806 47.384 127.806 44.6ZM120.43 44.6C120.43 42.392 121.822 41.352 123.358 41.352C124.862 41.352 126.318 42.392 126.318 44.6C126.318 46.824 124.83 47.864 123.31 47.864C121.79 47.864 120.43 46.824 120.43 44.6ZM121.038 39.176H121.886C121.95 38.696 122.222 38.472 122.574 38.472C123.214 38.472 123.534 39.208 124.398 39.208C125.23 39.208 125.87 38.632 125.998 37.544H125.166C125.102 38.008 124.814 38.232 124.462 38.232C123.806 38.232 123.486 37.496 122.638 37.496C121.806 37.496 121.198 38.072 121.038 39.176ZM133.448 41.32C134.952 41.32 136.232 42.264 136.216 43.976H130.68C130.84 42.264 132.024 41.32 133.448 41.32ZM137.544 46.296H135.976C135.656 47.24 134.824 47.912 133.512 47.912C132.024 47.912 130.776 46.936 130.664 45.16H137.672C137.704 44.856 137.72 44.6 137.72 44.28C137.72 41.88 136.056 40.088 133.512 40.088C130.952 40.088 129.176 41.832 129.176 44.6C129.176 47.384 131.016 49.144 133.512 49.144C135.688 49.144 137.096 47.896 137.544 46.296ZM145.946 46.616C145.882 43.48 140.794 44.616 140.794 42.536C140.794 41.832 141.434 41.32 142.506 41.32C143.674 41.32 144.346 41.96 144.41 42.84H145.866C145.77 41.128 144.49 40.088 142.554 40.088C140.602 40.088 139.338 41.192 139.338 42.536C139.338 45.8 144.522 44.664 144.522 46.616C144.522 47.336 143.882 47.912 142.73 47.912C141.498 47.912 140.746 47.272 140.666 46.424H139.162C139.258 48.024 140.698 49.144 142.746 49.144C144.682 49.144 145.946 48.056 145.946 46.616ZM157.323 37.72C154.187 37.72 151.723 40.072 151.723 43.416C151.723 46.76 154.187 49.096 157.323 49.096C160.347 49.096 162.539 46.872 162.795 44.104V42.984H156.795V44.168H161.243C161.019 46.376 159.515 47.784 157.323 47.784C154.971 47.784 153.211 46.088 153.211 43.416C153.211 40.728 154.971 39.032 157.323 39.032C158.891 39.032 160.107 39.784 160.715 41.08H162.459C161.627 38.936 159.675 37.72 157.323 37.72ZM168.448 41.32C169.952 41.32 171.232 42.264 171.216 43.976H165.68C165.84 42.264 167.024 41.32 168.448 41.32ZM172.544 46.296H170.976C170.656 47.24 169.824 47.912 168.512 47.912C167.024 47.912 165.776 46.936 165.664 45.16H172.672C172.704 44.856 172.72 44.6 172.72 44.28C172.72 41.88 171.056 40.088 168.512 40.088C165.952 40.088 164.176 41.832 164.176 44.6C164.176 47.384 166.016 49.144 168.512 49.144C170.688 49.144 172.096 47.896 172.544 46.296ZM176.098 44.232C176.098 42.2 177.154 41.576 178.546 41.576H178.93V40.072C177.538 40.072 176.594 40.68 176.098 41.656V40.232H174.642V49H176.098V44.232ZM180.067 44.584C180.067 47.304 181.875 49.144 184.211 49.144C185.827 49.144 186.963 48.312 187.491 47.368V49H188.963V40.232H187.491V41.832C186.979 40.92 185.859 40.088 184.227 40.088C181.875 40.088 180.067 41.848 180.067 44.584ZM187.491 44.6C187.491 46.664 186.115 47.864 184.515 47.864C182.915 47.864 181.555 46.648 181.555 44.584C181.555 42.52 182.915 41.352 184.515 41.352C186.115 41.352 187.491 42.568 187.491 44.6ZM191.423 49H192.879V40.232H191.423V49ZM192.175 38.808C192.703 38.808 193.135 38.376 193.135 37.816C193.135 37.256 192.703 36.824 192.175 36.824C191.615 36.824 191.183 37.256 191.183 37.816C191.183 38.376 191.615 38.808 192.175 38.808ZM201.665 46.616C201.601 43.48 196.513 44.616 196.513 42.536C196.513 41.832 197.153 41.32 198.225 41.32C199.393 41.32 200.065 41.96 200.129 42.84H201.585C201.489 41.128 200.209 40.088 198.273 40.088C196.321 40.088 195.057 41.192 195.057 42.536C195.057 45.8 200.241 44.664 200.241 46.616C200.241 47.336 199.601 47.912 198.449 47.912C197.217 47.912 196.465 47.272 196.385 46.424H194.881C194.977 48.024 196.417 49.144 198.465 49.144C200.401 49.144 201.665 48.056 201.665 46.616Z" fill="#A5A5A5"/>
<path d="M808.963 43.144V39.048H811.107C812.771 39.048 813.475 39.816 813.475 41.112C813.475 42.36 812.771 43.144 811.107 43.144H808.963ZM814.963 41.112C814.963 39.288 813.731 37.848 811.107 37.848H807.507V49H808.963V44.344H811.107C813.875 44.344 814.963 42.808 814.963 41.112ZM820.245 37.848H816.773V49H820.245C823.909 49 826.165 46.904 826.165 43.448C826.165 39.992 823.909 37.848 820.245 37.848ZM818.229 47.8V39.032H820.245C823.157 39.032 824.677 40.728 824.677 43.448C824.677 46.168 823.157 47.8 820.245 47.8H818.229ZM832.261 47.464L828.757 37.848H827.205L831.413 49H833.093L837.301 37.848H835.765L832.261 47.464Z" fill="#D8413A"/>
<path d="M953.223 43.416C953.223 46.76 955.671 49.096 958.791 49.096C961.207 49.096 963.127 47.896 963.959 45.752H962.215C961.607 47.08 960.423 47.832 958.791 47.832C956.455 47.832 954.711 46.136 954.711 43.416C954.711 40.68 956.455 38.984 958.791 38.984C960.423 38.984 961.607 39.736 962.215 41.08H963.959C963.127 38.92 961.207 37.704 958.791 37.704C955.671 37.704 953.223 40.072 953.223 43.416ZM974.447 44.6C974.447 41.832 972.511 40.088 970.015 40.088C967.535 40.088 965.583 41.832 965.583 44.6C965.583 47.384 967.471 49.144 969.951 49.144C972.447 49.144 974.447 47.384 974.447 44.6ZM967.071 44.6C967.071 42.392 968.463 41.352 969.999 41.352C971.503 41.352 972.959 42.392 972.959 44.6C972.959 46.824 971.471 47.864 969.951 47.864C968.431 47.864 967.071 46.824 967.071 44.6ZM982.777 49H984.217V43.832C984.217 41.32 982.665 40.072 980.633 40.072C979.449 40.072 978.393 40.568 977.817 41.48V40.232H976.361V49H977.817V44.152C977.817 42.264 978.841 41.336 980.329 41.336C981.801 41.336 982.777 42.248 982.777 44.04V49ZM986.867 49H988.323V41.432H990.163V40.232H988.323V39.608C988.323 38.472 988.755 37.992 990.067 37.992V36.776C987.827 36.776 986.867 37.656 986.867 39.608V40.232H985.731V41.432H986.867V49ZM991.861 49H993.317V40.232H991.861V49ZM992.613 38.808C993.141 38.808 993.573 38.376 993.573 37.816C993.573 37.256 993.141 36.824 992.613 36.824C992.053 36.824 991.621 37.256 991.621 37.816C991.621 38.376 992.053 38.808 992.613 38.808ZM997.254 44.232C997.254 42.2 998.31 41.576 999.702 41.576H1000.09V40.072C998.694 40.072 997.75 40.68 997.254 41.656V40.232H995.798V49H997.254V44.232ZM1014.42 49H1015.86V43.832C1015.86 41.32 1014.31 40.072 1012.31 40.072C1010.97 40.072 1009.72 40.76 1009.21 42.024C1008.63 40.712 1007.43 40.072 1005.99 40.072C1004.84 40.072 1003.8 40.568 1003.22 41.496V40.232H1001.77V49H1003.22V44.168C1003.22 42.28 1004.23 41.336 1005.7 41.336C1007.14 41.336 1008.1 42.248 1008.1 44.04V49H1009.54V44.168C1009.54 42.28 1010.55 41.336 1012.02 41.336C1013.46 41.336 1014.42 42.248 1014.42 44.04V49ZM1017.71 44.584C1017.71 47.304 1019.52 49.144 1021.85 49.144C1023.47 49.144 1024.6 48.312 1025.13 47.368V49H1026.6V40.232H1025.13V41.832C1024.62 40.92 1023.5 40.088 1021.87 40.088C1019.52 40.088 1017.71 41.848 1017.71 44.584ZM1025.13 44.6C1025.13 46.664 1023.76 47.864 1022.16 47.864C1020.56 47.864 1019.2 46.648 1019.2 44.584C1019.2 42.52 1020.56 41.352 1022.16 41.352C1023.76 41.352 1025.13 42.568 1025.13 44.6ZM1028.52 44.6C1028.52 47.176 1030.06 48.888 1032.26 49.112V50.824H1033.06C1033.75 50.824 1034.09 51.016 1034.09 51.512C1034.09 52.024 1033.75 52.216 1033.06 52.216H1031.51V53.16H1033.35C1034.49 53.16 1035.3 52.52 1035.3 51.512C1035.3 50.456 1034.47 49.912 1033.24 49.928V49.128C1035.16 48.968 1036.42 47.8 1036.84 46.184H1035.27C1034.95 47.288 1034.09 47.912 1032.79 47.912C1031.19 47.912 1030.01 46.776 1030.01 44.6C1030.01 42.456 1031.19 41.32 1032.79 41.32C1034.09 41.32 1034.97 41.992 1035.27 43.048H1036.84C1036.39 41.208 1034.97 40.088 1032.79 40.088C1030.3 40.088 1028.52 41.848 1028.52 44.6ZM1038.24 44.584C1038.24 47.304 1040.05 49.144 1042.38 49.144C1044 49.144 1045.13 48.312 1045.66 47.368V49H1047.13V40.232H1045.66V41.832C1045.15 40.92 1044.03 40.088 1042.4 40.088C1040.05 40.088 1038.24 41.848 1038.24 44.584ZM1045.66 44.6C1045.66 46.664 1044.29 47.864 1042.69 47.864C1041.09 47.864 1039.73 46.648 1039.73 44.584C1039.73 42.52 1041.09 41.352 1042.69 41.352C1044.29 41.352 1045.66 42.568 1045.66 44.6ZM1040.62 39.288H1041.47C1041.53 38.808 1041.81 38.584 1042.16 38.584C1042.8 38.584 1043.12 39.32 1043.98 39.32C1044.81 39.32 1045.45 38.744 1045.58 37.656H1044.75C1044.69 38.12 1044.4 38.344 1044.05 38.344C1043.39 38.344 1043.07 37.608 1042.22 37.608C1041.39 37.608 1040.78 38.184 1040.62 39.288ZM1057.92 44.6C1057.92 41.832 1055.98 40.088 1053.48 40.088C1051 40.088 1049.05 41.832 1049.05 44.6C1049.05 47.384 1050.94 49.144 1053.42 49.144C1055.92 49.144 1057.92 47.384 1057.92 44.6ZM1050.54 44.6C1050.54 42.392 1051.93 41.352 1053.47 41.352C1054.97 41.352 1056.43 42.392 1056.43 44.6C1056.43 46.824 1054.94 47.864 1053.42 47.864C1051.9 47.864 1050.54 46.824 1050.54 44.6Z" fill="#A5A5A5"/>
<line x1="218.875" y1="41.872" x2="262.742" y2="41.872" stroke="#D8413A" stroke-width="2.2561"/>
<line x1="464.098" y1="41.872" x2="507.965" y2="41.872" stroke="#D8413A" stroke-width="2.2561"/>
<line x1="703.953" y1="41.872" x2="747.82" y2="41.872" stroke="#D8413A" stroke-width="2.2561"/>
<line x1="850.613" y1="41.872" x2="894.48" y2="41.872" stroke="#C4C4C4" stroke-width="2.2561"/>
<path d="M329.117 45.9598C329.117 41.8318 323.101 43.6238 323.101 40.7438C323.101 39.5438 324.045 38.9198 325.245 38.9518C326.605 38.9678 327.309 39.8158 327.405 40.5678H329.005C328.829 38.8718 327.437 37.7038 325.309 37.7038C323.101 37.7038 321.613 38.9518 321.613 40.7918C321.613 44.9358 327.645 43.0158 327.645 46.0238C327.645 47.0798 326.813 47.8798 325.405 47.8798C323.853 47.8798 323.197 46.9518 323.101 46.0238H321.549C321.581 47.8638 323.165 49.1118 325.405 49.1118C327.821 49.1118 329.117 47.5438 329.117 45.9598ZM334.987 41.3198C336.491 41.3198 337.771 42.2638 337.755 43.9758H332.219C332.379 42.2638 333.563 41.3198 334.987 41.3198ZM339.083 46.2958H337.515C337.195 47.2398 336.363 47.9118 335.051 47.9118C333.563 47.9118 332.315 46.9358 332.203 45.1598H339.211C339.243 44.8558 339.259 44.5998 339.259 44.2798C339.259 41.8798 337.595 40.0878 335.051 40.0878C332.491 40.0878 330.715 41.8318 330.715 44.5998C330.715 47.3838 332.555 49.1438 335.051 49.1438C337.227 49.1438 338.635 47.8958 339.083 46.2958ZM341.501 46.5998C341.501 48.3598 342.381 48.9998 343.933 48.9998H345.245V47.7678H344.173C343.277 47.7678 342.957 47.4638 342.957 46.5998V41.4318H345.245V40.2318H342.957V38.0238H341.501V40.2318H340.365V41.4318H341.501V46.5998ZM355.329 44.5998C355.329 41.8318 353.393 40.0878 350.897 40.0878C348.417 40.0878 346.465 41.8318 346.465 44.5998C346.465 47.3838 348.353 49.1438 350.833 49.1438C353.329 49.1438 355.329 47.3838 355.329 44.5998ZM347.953 44.5998C347.953 42.3918 349.345 41.3518 350.881 41.3518C352.385 41.3518 353.841 42.3918 353.841 44.5998C353.841 46.8238 352.353 47.8638 350.833 47.8638C349.313 47.8638 347.953 46.8238 347.953 44.5998ZM358.7 44.2318C358.7 42.1998 359.756 41.5758 361.148 41.5758H361.532V40.0718C360.14 40.0718 359.196 40.6798 358.7 41.6558V40.2318H357.244V48.9998H358.7V44.2318ZM371.206 41.3198C372.71 41.3198 373.99 42.2638 373.974 43.9758H368.438C368.598 42.2638 369.782 41.3198 371.206 41.3198ZM375.302 46.2958H373.734C373.414 47.2398 372.582 47.9118 371.27 47.9118C369.782 47.9118 368.534 46.9358 368.422 45.1598H375.43C375.462 44.8558 375.478 44.5998 375.478 44.2798C375.478 41.8798 373.814 40.0878 371.27 40.0878C368.71 40.0878 366.934 41.8318 366.934 44.5998C366.934 47.3838 368.774 49.1438 371.27 49.1438C373.446 49.1438 374.854 47.8958 375.302 46.2958ZM381.666 48.9998H383.122V40.2318H381.666V48.9998ZM382.418 38.8078C382.946 38.8078 383.378 38.3758 383.378 37.8158C383.378 37.2558 382.946 36.8238 382.418 36.8238C381.858 36.8238 381.426 37.2558 381.426 37.8158C381.426 38.3758 381.858 38.8078 382.418 38.8078ZM392.019 48.9998H393.459V43.8318C393.459 41.3198 391.907 40.0718 389.875 40.0718C388.691 40.0718 387.635 40.5678 387.059 41.4798V40.2318H385.603V48.9998H387.059V44.1518C387.059 42.2638 388.083 41.3358 389.571 41.3358C391.043 41.3358 392.019 42.2478 392.019 44.0398V48.9998ZM395.293 44.5838C395.293 47.3038 397.101 49.1438 399.453 49.1438C401.053 49.1438 402.189 48.2958 402.717 47.3518V49.1918C402.717 51.0638 401.549 52.0558 399.997 52.0558C398.557 52.0558 397.517 51.3358 397.197 50.2798H395.757C396.045 52.1518 397.693 53.3198 399.997 53.3198C402.573 53.3198 404.189 51.6078 404.189 49.1918V40.2318H402.717V41.8318C402.205 40.8878 401.053 40.0878 399.453 40.0878C397.101 40.0878 395.293 41.8478 395.293 44.5838ZM402.717 44.5998C402.717 46.6638 401.341 47.8638 399.741 47.8638C398.141 47.8638 396.781 46.6478 396.781 44.5838C396.781 42.5198 398.141 41.3518 399.741 41.3518C401.341 41.3518 402.717 42.5678 402.717 44.5998ZM408.106 44.2318C408.106 42.1998 409.162 41.5758 410.554 41.5758H410.938V40.0718C409.546 40.0718 408.602 40.6798 408.106 41.6558V40.2318H406.65V48.9998H408.106V44.2318ZM416.347 41.3198C417.851 41.3198 419.131 42.2638 419.115 43.9758H413.579C413.739 42.2638 414.923 41.3198 416.347 41.3198ZM420.443 46.2958H418.875C418.555 47.2398 417.723 47.9118 416.411 47.9118C414.923 47.9118 413.675 46.9358 413.563 45.1598H420.571C420.603 44.8558 420.619 44.5998 420.619 44.2798C420.619 41.8798 418.955 40.0878 416.411 40.0878C413.851 40.0878 412.075 41.8318 412.075 44.5998C412.075 47.3838 413.915 49.1438 416.411 49.1438C418.587 49.1438 419.995 47.8958 420.443 46.2958ZM428.845 46.6158C428.781 43.4798 423.693 44.6158 423.693 42.5358C423.693 41.8318 424.333 41.3198 425.405 41.3198C426.573 41.3198 427.245 41.9598 427.309 42.8398H428.765C428.669 41.1278 427.389 40.0878 425.453 40.0878C423.501 40.0878 422.237 41.1918 422.237 42.5358C422.237 45.7998 427.421 44.6638 427.421 46.6158C427.421 47.3358 426.781 47.9118 425.629 47.9118C424.397 47.9118 423.645 47.2718 423.565 46.4238H422.061C422.157 48.0238 423.597 49.1438 425.645 49.1438C427.581 49.1438 428.845 48.0558 428.845 46.6158ZM437.204 46.6158C437.14 43.4798 432.052 44.6158 432.052 42.5358C432.052 41.8318 432.692 41.3198 433.764 41.3198C434.932 41.3198 435.604 41.9598 435.668 42.8398H437.124C437.028 41.1278 435.748 40.0878 433.812 40.0878C431.86 40.0878 430.596 41.1918 430.596 42.5358C430.596 45.7998 435.78 44.6638 435.78 46.6158C435.78 47.3358 435.14 47.9118 433.988 47.9118C432.756 47.9118 432.004 47.2718 431.924 46.4238H430.42C430.516 48.0238 431.956 49.1438 434.004 49.1438C435.94 49.1438 437.204 48.0558 437.204 46.6158ZM447.579 44.5998C447.579 41.8318 445.643 40.0878 443.147 40.0878C440.667 40.0878 438.715 41.8318 438.715 44.5998C438.715 47.3838 440.603 49.1438 443.083 49.1438C445.579 49.1438 447.579 47.3838 447.579 44.5998ZM440.203 44.5998C440.203 42.3918 441.595 41.3518 443.131 41.3518C444.635 41.3518 446.091 42.3918 446.091 44.5998C446.091 46.8238 444.603 47.8638 443.083 47.8638C441.563 47.8638 440.203 46.8238 440.203 44.5998Z" fill="#A5A5A5"/>
<ellipse cx="291.782" cy="42.7924" rx="16.1568" ry="15.7927" fill="#D8413A"/>
<path d="M300.237 36.0008C299.889 36.0115 299.559 36.1546 299.317 36.3995C296.038 39.6118 292.756 42.8083 289.474 46.0211L284.39 41.8802C284.117 41.6577 283.764 41.5504 283.41 41.5821C283.056 41.6136 282.729 41.7816 282.502 42.0486C282.274 42.3159 282.165 42.6603 282.197 43.0065C282.229 43.3527 282.401 43.672 282.674 43.8943L288.7 48.8021C288.957 49.0125 289.286 49.1209 289.621 49.1058C289.956 49.0906 290.273 48.9532 290.509 48.7204C294.078 45.2249 297.648 41.7501 301.221 38.2504C301.482 38.0033 301.63 37.6625 301.629 37.3067C301.629 36.9509 301.48 36.6106 301.218 36.3644C300.955 36.1181 300.601 35.9869 300.237 36.001L300.237 36.0008Z" fill="white"/>
<path d="M775.772 21.0569L766.444 5.2642L785.1 5.2642L775.772 21.0569Z" fill="#D8413A"/>
<path d="M574.657 45.96C574.657 41.832 568.641 43.624 568.641 40.744C568.641 39.544 569.585 38.92 570.785 38.952C572.145 38.968 572.849 39.816 572.945 40.568H574.545C574.369 38.872 572.977 37.704 570.849 37.704C568.641 37.704 567.153 38.952 567.153 40.792C567.153 44.936 573.185 43.016 573.185 46.024C573.185 47.08 572.353 47.88 570.945 47.88C569.393 47.88 568.737 46.952 568.641 46.024H567.089C567.121 47.864 568.705 49.112 570.945 49.112C573.361 49.112 574.657 47.544 574.657 45.96ZM580.528 41.32C582.032 41.32 583.312 42.264 583.296 43.976H577.76C577.92 42.264 579.104 41.32 580.528 41.32ZM584.624 46.296H583.056C582.736 47.24 581.904 47.912 580.592 47.912C579.104 47.912 577.856 46.936 577.744 45.16H584.752C584.784 44.856 584.8 44.6 584.8 44.28C584.8 41.88 583.136 40.088 580.592 40.088C578.032 40.088 576.256 41.832 576.256 44.6C576.256 47.384 578.096 49.144 580.592 49.144C582.768 49.144 584.176 47.896 584.624 46.296ZM587.042 46.6C587.042 48.36 587.922 49 589.474 49H590.786V47.768H589.714C588.818 47.768 588.498 47.464 588.498 46.6V41.432H590.786V40.232H588.498V38.024H587.042V40.232H585.906V41.432H587.042V46.6ZM600.87 44.6C600.87 41.832 598.934 40.088 596.438 40.088C593.958 40.088 592.006 41.832 592.006 44.6C592.006 47.384 593.894 49.144 596.374 49.144C598.87 49.144 600.87 47.384 600.87 44.6ZM593.494 44.6C593.494 42.392 594.886 41.352 596.422 41.352C597.926 41.352 599.382 42.392 599.382 44.6C599.382 46.824 597.894 47.864 596.374 47.864C594.854 47.864 593.494 46.824 593.494 44.6ZM604.24 44.232C604.24 42.2 605.296 41.576 606.688 41.576H607.072V40.072C605.68 40.072 604.736 40.68 604.24 41.656V40.232H602.784V49H604.24V44.232ZM616.747 41.32C618.251 41.32 619.531 42.264 619.515 43.976H613.979C614.139 42.264 615.323 41.32 616.747 41.32ZM620.843 46.296H619.275C618.955 47.24 618.123 47.912 616.811 47.912C615.323 47.912 614.075 46.936 613.963 45.16H620.971C621.003 44.856 621.019 44.6 621.019 44.28C621.019 41.88 619.355 40.088 616.811 40.088C614.251 40.088 612.475 41.832 612.475 44.6C612.475 47.384 614.315 49.144 616.811 49.144C618.987 49.144 620.395 47.896 620.843 46.296ZM628.662 41.848V40.232H627.206V53.16H628.662V47.384C629.206 48.28 630.342 49.144 631.942 49.144C634.294 49.144 636.102 47.304 636.102 44.584C636.102 41.848 634.294 40.088 631.942 40.088C630.342 40.088 629.19 40.92 628.662 41.848ZM634.614 44.584C634.614 46.648 633.254 47.864 631.638 47.864C630.054 47.864 628.662 46.664 628.662 44.6C628.662 42.568 630.054 41.352 631.638 41.352C633.254 41.352 634.614 42.52 634.614 44.584ZM639.475 44.232C639.475 42.2 640.531 41.576 641.923 41.576H642.307V40.072C640.915 40.072 639.971 40.68 639.475 41.656V40.232H638.019V49H639.475V44.232ZM652.307 44.6C652.307 41.832 650.371 40.088 647.875 40.088C645.395 40.088 643.443 41.832 643.443 44.6C643.443 47.384 645.331 49.144 647.811 49.144C650.307 49.144 652.307 47.384 652.307 44.6ZM644.931 44.6C644.931 42.392 646.323 41.352 647.859 41.352C649.363 41.352 650.819 42.392 650.819 44.6C650.819 46.824 649.331 47.864 647.811 47.864C646.291 47.864 644.931 46.824 644.931 44.6ZM653.678 44.584C653.678 47.304 655.486 49.144 657.838 49.144C659.438 49.144 660.574 48.328 661.102 47.352V49H662.574V37.16H661.102V41.8C660.494 40.792 659.23 40.088 657.854 40.088C655.486 40.088 653.678 41.848 653.678 44.584ZM661.102 44.6C661.102 46.664 659.726 47.864 658.126 47.864C656.526 47.864 655.166 46.648 655.166 44.584C655.166 42.52 656.526 41.352 658.126 41.352C659.726 41.352 661.102 42.568 661.102 44.6ZM672.81 40.232H671.354V45.048C671.354 46.936 670.346 47.864 668.842 47.864C667.37 47.864 666.394 46.952 666.394 45.176V40.232H664.954V45.368C664.954 47.88 666.538 49.128 668.554 49.128C669.722 49.128 670.794 48.616 671.354 47.704V49H672.81V40.232ZM675.589 46.6C675.589 48.36 676.469 49 678.021 49H679.333V47.768H678.261C677.365 47.768 677.045 47.464 677.045 46.6V41.432H679.333V40.232H677.045V38.024H675.589V40.232H674.453V41.432H675.589V46.6ZM689.417 44.6C689.417 41.832 687.481 40.088 684.985 40.088C682.505 40.088 680.553 41.832 680.553 44.6C680.553 47.384 682.441 49.144 684.921 49.144C687.417 49.144 689.417 47.384 689.417 44.6ZM682.041 44.6C682.041 42.392 683.433 41.352 684.969 41.352C686.473 41.352 687.929 42.392 687.929 44.6C687.929 46.824 686.441 47.864 684.921 47.864C683.401 47.864 682.041 46.824 682.041 44.6Z" fill="#D8413A"/>
<ellipse cx="536.993" cy="42.7927" rx="16.1568" ry="15.7927" fill="#D8413A"/>
<path d="M545.046 36.0008C544.698 36.0115 544.368 36.1546 544.126 36.3995C540.847 39.6118 537.565 42.8083 534.282 46.0211L529.198 41.8802C528.925 41.6577 528.573 41.5504 528.219 41.5821C527.865 41.6136 527.538 41.7816 527.31 42.0486C527.083 42.3159 526.973 42.6603 527.006 43.0065C527.038 43.3527 527.21 43.672 527.483 43.8943L533.508 48.8021C533.765 49.0125 534.094 49.1209 534.429 49.1058C534.764 49.0906 535.081 48.9532 535.318 48.7204C538.886 45.2249 542.457 41.7501 546.029 38.2504C546.291 38.0033 546.438 37.6625 546.438 37.3067C546.438 36.9509 546.289 36.6106 546.026 36.3644C545.763 36.1181 545.41 35.9869 545.046 36.001L545.046 36.0008Z" fill="white"/>
<path d="M776.394 49H779.13V46.92H780.442V44.552H779.13V37.48H776.074L771.018 44.712V46.92H776.394V49ZM773.898 44.552L776.586 40.488V44.552H773.898Z" fill="#D8413A"/>
<path d="M791.565 42.7927C791.565 51.0833 784.685 57.8333 776.161 57.8333C767.637 57.8333 760.756 51.0833 760.756 42.7927C760.756 34.502 767.637 27.752 776.161 27.752C784.685 27.752 791.565 34.502 791.565 42.7927Z" stroke="#D8413A" stroke-width="1.50407"/>
<path d="M918.636 37.304V44.264H921.276C921.42 43.72 921.868 43.304 922.636 43.304C923.612 43.304 924.14 43.864 924.14 44.92C924.14 45.928 923.692 46.68 922.652 46.68C921.756 46.68 921.292 46.136 921.18 45.528H918.508C918.604 47.544 920.124 49 922.748 49C925.34 49 926.78 47.4 926.78 44.936C926.78 43.048 925.804 41.112 923.26 41.112C922.332 41.112 921.532 41.448 921.116 41.912V39.704H926.108V37.304H918.636Z" fill="#C4C4C4"/>
<path d="M938.495 42.7927C938.495 51.0833 931.614 57.8333 923.09 57.8333C914.566 57.8333 907.686 51.0833 907.686 42.7927C907.686 34.502 914.566 27.752 923.09 27.752C931.614 27.752 938.495 34.502 938.495 42.7927Z" stroke="#C4C4C4" stroke-width="1.50407"/>
<ellipse cx="16.1568" cy="42.7927" rx="16.1568" ry="15.7927" fill="#D8413A"/>
<path d="M24.1827 36.0008C23.8346 36.0115 23.5044 36.1546 23.2623 36.3995C19.9833 39.6118 16.7017 42.8083 13.4189 46.0211L8.33518 41.8802C8.062 41.6577 7.70965 41.5504 7.35544 41.5821C7.00124 41.6136 6.67457 41.7816 6.44695 42.0486C6.21953 42.3159 6.11003 42.6603 6.14225 43.0065C6.1747 43.3527 6.34655 43.672 6.61973 43.8943L12.6448 48.8021C12.9021 49.0125 13.2309 49.1209 13.5659 49.1058C13.901 49.0906 14.2181 48.9532 14.4546 48.7204C18.023 45.2249 21.5933 41.7501 25.1659 38.2504C25.4276 38.0033 25.5752 37.6625 25.5747 37.3067C25.5743 36.9509 25.4255 36.6106 25.1629 36.3644C24.9002 36.1181 24.5462 35.9869 24.1825 36.001L24.1827 36.0008Z" fill="white"/>
</svg>
